G04*
G04 #@! TF.GenerationSoftware,Altium Limited,Altium Designer,18.1.11 (251)*
G04*
G04 Layer_Color=65535*
%FSLAX25Y25*%
%MOIN*%
G70*
G01*
G75*
%ADD10C,0.00984*%
%ADD11C,0.00787*%
%ADD12C,0.02362*%
%ADD13C,0.01000*%
%ADD14C,0.00197*%
G36*
X331895Y205288D02*
X331989Y205282D01*
X332070Y205271D01*
X332134Y205259D01*
X332181Y205247D01*
X332210Y205241D01*
X332222Y205236D01*
X332309Y205212D01*
X332385Y205183D01*
X332461Y205148D01*
X332519Y205119D01*
X332566Y205090D01*
X332607Y205067D01*
X332630Y205049D01*
X332636Y205043D01*
X332688Y204985D01*
X332735Y204921D01*
X332770Y204857D01*
X332793Y204798D01*
X332811Y204740D01*
X332828Y204694D01*
X332834Y204664D01*
Y204659D01*
Y204653D01*
X332846Y204554D01*
Y204449D01*
X332840Y204349D01*
X332828Y204250D01*
X332811Y204163D01*
X332799Y204099D01*
X332793Y204070D01*
Y204052D01*
X332787Y204041D01*
Y204035D01*
X332123Y201394D01*
X332076Y201266D01*
X332018Y201149D01*
X331948Y201044D01*
X331872Y200957D01*
X331802Y200887D01*
X331744Y200834D01*
X331720Y200817D01*
X331709Y200805D01*
X331697Y200799D01*
X331691Y200793D01*
X331563Y200712D01*
X331435Y200653D01*
X331307Y200612D01*
X331196Y200583D01*
X331097Y200566D01*
X331056Y200560D01*
X331021D01*
X330992Y200554D01*
X330187D01*
X330951Y203603D01*
X330974Y203702D01*
X330980Y203784D01*
Y203854D01*
X330974Y203912D01*
X330962Y203953D01*
X330951Y203988D01*
X330945Y204006D01*
X330939Y204011D01*
X330904Y204058D01*
X330852Y204087D01*
X330799Y204111D01*
X330741Y204128D01*
X330689Y204140D01*
X330648Y204146D01*
X330607D01*
X330514Y204140D01*
X330432Y204122D01*
X330356Y204105D01*
X330298Y204081D01*
X330245Y204052D01*
X330210Y204035D01*
X330187Y204017D01*
X330181Y204011D01*
X330123Y203953D01*
X330076Y203889D01*
X330035Y203825D01*
X330006Y203755D01*
X329977Y203697D01*
X329960Y203650D01*
X329954Y203615D01*
X329948Y203609D01*
Y203603D01*
X329184Y200554D01*
X327465D01*
X328222Y203597D01*
X328246Y203697D01*
X328257Y203778D01*
Y203854D01*
X328252Y203912D01*
X328240Y203953D01*
X328228Y203988D01*
X328222Y204006D01*
X328217Y204011D01*
X328176Y204058D01*
X328129Y204087D01*
X328071Y204111D01*
X328012Y204128D01*
X327960Y204140D01*
X327919Y204146D01*
X327878D01*
X327791Y204140D01*
X327709Y204122D01*
X327639Y204105D01*
X327581Y204081D01*
X327535Y204052D01*
X327500Y204035D01*
X327476Y204017D01*
X327470Y204011D01*
X327412Y203953D01*
X327365Y203889D01*
X327325Y203825D01*
X327295Y203755D01*
X327272Y203697D01*
X327255Y203650D01*
X327249Y203615D01*
X327243Y203609D01*
Y203603D01*
X326473Y200554D01*
X324753D01*
X325908Y205172D01*
X327645D01*
X327511Y204612D01*
X327529D01*
X327634Y204734D01*
X327738Y204839D01*
X327849Y204927D01*
X327948Y204997D01*
X328036Y205055D01*
X328071Y205078D01*
X328100Y205096D01*
X328129Y205107D01*
X328147Y205119D01*
X328158Y205125D01*
X328164D01*
X328304Y205183D01*
X328450Y205224D01*
X328590Y205259D01*
X328724Y205276D01*
X328782Y205288D01*
X328835D01*
X328881Y205294D01*
X328922Y205300D01*
X329103D01*
X329196Y205294D01*
X329278Y205288D01*
X329348Y205276D01*
X329406Y205271D01*
X329447Y205259D01*
X329470Y205253D01*
X329482D01*
X329557Y205236D01*
X329622Y205218D01*
X329680Y205195D01*
X329732Y205172D01*
X329773Y205154D01*
X329802Y205137D01*
X329820Y205131D01*
X329826Y205125D01*
X329872Y205090D01*
X329913Y205049D01*
X329954Y205014D01*
X329983Y204979D01*
X330006Y204944D01*
X330024Y204921D01*
X330030Y204903D01*
X330035Y204898D01*
X330088Y204793D01*
X330111Y204740D01*
X330129Y204688D01*
X330140Y204647D01*
X330152Y204612D01*
X330158Y204589D01*
Y204583D01*
X330216Y204653D01*
X330275Y204717D01*
X330327Y204775D01*
X330380Y204828D01*
X330426Y204868D01*
X330461Y204898D01*
X330484Y204915D01*
X330490Y204921D01*
X330560Y204973D01*
X330630Y205014D01*
X330694Y205049D01*
X330753Y205084D01*
X330805Y205107D01*
X330846Y205125D01*
X330869Y205131D01*
X330881Y205137D01*
X331027Y205189D01*
X331091Y205212D01*
X331155Y205230D01*
X331202Y205241D01*
X331242Y205253D01*
X331272Y205259D01*
X331277D01*
X331423Y205282D01*
X331493Y205288D01*
X331557Y205294D01*
X331610Y205300D01*
X331796D01*
X331895Y205288D01*
D02*
G37*
G36*
X323902Y200548D02*
X322188D01*
X322322Y201102D01*
X322299D01*
X322194Y200986D01*
X322089Y200887D01*
X321984Y200799D01*
X321885Y200729D01*
X321798Y200677D01*
X321763Y200653D01*
X321734Y200636D01*
X321705Y200624D01*
X321687Y200612D01*
X321675Y200607D01*
X321670D01*
X321530Y200548D01*
X321390Y200508D01*
X321250Y200478D01*
X321122Y200461D01*
X321063Y200449D01*
X321011D01*
X320958Y200443D01*
X320923Y200438D01*
X320731D01*
X320632Y200443D01*
X320538Y200455D01*
X320463Y200467D01*
X320398Y200478D01*
X320352Y200484D01*
X320323Y200496D01*
X320311D01*
X320230Y200525D01*
X320154Y200554D01*
X320090Y200589D01*
X320031Y200624D01*
X319990Y200653D01*
X319955Y200677D01*
X319932Y200694D01*
X319926Y200700D01*
X319868Y200752D01*
X319815Y200811D01*
X319781Y200869D01*
X319751Y200927D01*
X319728Y200986D01*
X319716Y201026D01*
X319705Y201056D01*
Y201067D01*
X319693Y201166D01*
Y201266D01*
X319699Y201365D01*
X319711Y201464D01*
X319728Y201545D01*
X319740Y201615D01*
X319746Y201639D01*
Y201656D01*
X319751Y201668D01*
Y201674D01*
X320626Y205172D01*
X322346D01*
X321582Y202117D01*
X321565Y202017D01*
X321553Y201936D01*
Y201866D01*
X321565Y201808D01*
X321570Y201761D01*
X321582Y201732D01*
X321588Y201709D01*
X321594Y201703D01*
X321635Y201656D01*
X321681Y201621D01*
X321734Y201598D01*
X321792Y201580D01*
X321838Y201569D01*
X321879Y201563D01*
X321920D01*
X322013Y201569D01*
X322095Y201586D01*
X322165Y201609D01*
X322223Y201633D01*
X322270Y201656D01*
X322305Y201679D01*
X322328Y201697D01*
X322334Y201703D01*
X322392Y201761D01*
X322439Y201825D01*
X322480Y201895D01*
X322515Y201965D01*
X322538Y202023D01*
X322556Y202070D01*
X322562Y202105D01*
X322567Y202111D01*
Y202117D01*
X323337Y205172D01*
X325057D01*
X323902Y200548D01*
D02*
G37*
G36*
X318685D02*
X316965D01*
X318119Y205172D01*
X319845D01*
X318685Y200548D01*
D02*
G37*
G36*
X313064D02*
X311339D01*
X312872Y206646D01*
X314592D01*
X313064Y200548D01*
D02*
G37*
G36*
X310977D02*
X308989D01*
X309048Y201609D01*
X307567D01*
X307100Y200554D01*
X305118Y200548D01*
X307736Y205434D01*
X307794Y205533D01*
X307858Y205621D01*
X307922Y205708D01*
X307975Y205778D01*
X308027Y205836D01*
X308062Y205883D01*
X308086Y205906D01*
X308097Y205918D01*
X308179Y205999D01*
X308260Y206069D01*
X308336Y206134D01*
X308406Y206192D01*
X308470Y206233D01*
X308517Y206268D01*
X308546Y206291D01*
X308558Y206297D01*
X308657Y206355D01*
X308750Y206402D01*
X308843Y206448D01*
X308931Y206483D01*
X309001Y206512D01*
X309059Y206530D01*
X309077Y206536D01*
X309094Y206542D01*
X309100Y206547D01*
X309106D01*
X309217Y206577D01*
X309327Y206600D01*
X309432Y206617D01*
X309526Y206629D01*
X309607Y206641D01*
X309671D01*
X309695Y206646D01*
X310750D01*
X310977Y200548D01*
D02*
G37*
G36*
X316761Y205172D02*
X317483D01*
X317227Y204134D01*
X316504D01*
X315956Y201936D01*
X315944Y201872D01*
Y201814D01*
Y201767D01*
X315956Y201726D01*
X315968Y201697D01*
X315979Y201674D01*
X315985Y201662D01*
X315991Y201656D01*
X316032Y201627D01*
X316073Y201604D01*
X316125Y201592D01*
X316178Y201580D01*
X316224Y201574D01*
X316586D01*
X316329Y200548D01*
X316230Y200542D01*
X316137Y200537D01*
X316055Y200531D01*
X315979Y200525D01*
X315915D01*
X315863Y200519D01*
X315822D01*
X315735Y200513D01*
X315565D01*
X315495Y200508D01*
X315210D01*
X315082Y200513D01*
X314971Y200519D01*
X314872Y200531D01*
X314796Y200537D01*
X314738Y200548D01*
X314703Y200554D01*
X314691D01*
X314598Y200577D01*
X314516Y200601D01*
X314446Y200630D01*
X314388Y200653D01*
X314341Y200677D01*
X314312Y200694D01*
X314289Y200706D01*
X314283Y200712D01*
X314230Y200758D01*
X314190Y200811D01*
X314155Y200869D01*
X314131Y200922D01*
X314114Y200974D01*
X314102Y201015D01*
X314096Y201044D01*
Y201056D01*
X314090Y201149D01*
X314096Y201254D01*
X314108Y201353D01*
X314125Y201452D01*
X314137Y201539D01*
X314155Y201604D01*
X314160Y201633D01*
Y201650D01*
X314166Y201662D01*
Y201668D01*
X315408Y206582D01*
X317134D01*
X316761Y205172D01*
D02*
G37*
G36*
X312547Y227309D02*
X312662D01*
X312793Y227293D01*
X312957Y227276D01*
X313121Y227243D01*
X313515Y227194D01*
X313941Y227096D01*
X314400Y226981D01*
X314860Y226817D01*
X314745Y226489D01*
X314728D01*
X314696Y226505D01*
X314630Y226538D01*
X314531Y226555D01*
X314433Y226604D01*
X314302Y226637D01*
X314154Y226686D01*
X313990Y226719D01*
X313630Y226817D01*
X313203Y226899D01*
X312760Y226948D01*
X312301Y226981D01*
X311842D01*
X311694Y226965D01*
X311530Y226948D01*
X311170Y226915D01*
X310759Y226866D01*
X310333Y226784D01*
X309890Y226669D01*
X309874D01*
X309841Y226653D01*
X309775Y226637D01*
X309694Y226604D01*
X309595Y226571D01*
X309464Y226522D01*
X309185Y226407D01*
X308841Y226259D01*
X308480Y226079D01*
X308103Y225866D01*
X307709Y225620D01*
X307693D01*
X307660Y225587D01*
X307611Y225554D01*
X307529Y225489D01*
X307447Y225423D01*
X307348Y225341D01*
X307102Y225128D01*
X306823Y224882D01*
X306528Y224570D01*
X306233Y224226D01*
X305938Y223849D01*
Y223832D01*
X305905Y223799D01*
X305872Y223750D01*
X305823Y223668D01*
X305757Y223570D01*
X305692Y223455D01*
X305610Y223324D01*
X305528Y223176D01*
X305347Y222848D01*
X305167Y222471D01*
X304987Y222061D01*
X304839Y221618D01*
Y221602D01*
X304823Y221569D01*
X304806Y221503D01*
X304790Y221405D01*
X304757Y221307D01*
X304724Y221175D01*
X304708Y221028D01*
X304675Y220864D01*
X304609Y220503D01*
X304560Y220093D01*
X304527Y219667D01*
Y219207D01*
Y219191D01*
Y219158D01*
Y219093D01*
X304544Y219011D01*
X304560Y218896D01*
Y218765D01*
X304577Y218617D01*
X304609Y218469D01*
X304659Y218109D01*
X304757Y217699D01*
X304855Y217272D01*
X305003Y216829D01*
Y216813D01*
X305019Y216780D01*
X305052Y216715D01*
X305085Y216633D01*
X305134Y216534D01*
X305184Y216403D01*
X305331Y216124D01*
X305495Y215796D01*
X305708Y215435D01*
X305971Y215058D01*
X306249Y214681D01*
X305971Y214435D01*
X305954Y214451D01*
X305938Y214484D01*
X305889Y214533D01*
X305839Y214615D01*
X305757Y214714D01*
X305676Y214829D01*
X305593Y214960D01*
X305495Y215107D01*
X305282Y215452D01*
X305069Y215845D01*
X304855Y216272D01*
X304675Y216715D01*
Y216731D01*
X304659Y216764D01*
X304626Y216829D01*
X304609Y216928D01*
X304560Y217026D01*
X304527Y217157D01*
X304478Y217305D01*
X304446Y217469D01*
X304347Y217846D01*
X304265Y218273D01*
X304200Y218715D01*
X304167Y219191D01*
Y219207D01*
Y219257D01*
Y219322D01*
Y219421D01*
Y219535D01*
X304183Y219667D01*
Y219831D01*
X304200Y219995D01*
X304232Y220388D01*
X304298Y220815D01*
X304396Y221274D01*
X304511Y221733D01*
Y221749D01*
X304527Y221782D01*
X304544Y221848D01*
X304577Y221946D01*
X304626Y222045D01*
X304659Y222176D01*
X304724Y222323D01*
X304790Y222487D01*
X304954Y222848D01*
X305134Y223242D01*
X305380Y223652D01*
X305643Y224062D01*
X305659Y224078D01*
X305676Y224111D01*
X305725Y224160D01*
X305790Y224242D01*
X305856Y224341D01*
X305954Y224439D01*
X306184Y224701D01*
X306446Y224997D01*
X306758Y225308D01*
X307119Y225620D01*
X307496Y225915D01*
X307512Y225931D01*
X307545Y225948D01*
X307611Y225981D01*
X307676Y226030D01*
X307775Y226095D01*
X307906Y226161D01*
X308037Y226243D01*
X308185Y226325D01*
X308529Y226505D01*
X308906Y226686D01*
X309333Y226866D01*
X309775Y227014D01*
X309792D01*
X309825Y227030D01*
X309890Y227047D01*
X309989Y227063D01*
X310104Y227096D01*
X310235Y227129D01*
X310382Y227161D01*
X310563Y227194D01*
X310940Y227243D01*
X311366Y227293D01*
X311825Y227325D01*
X312449D01*
X312547Y227309D01*
D02*
G37*
G36*
X348643Y218256D02*
X347905D01*
Y219962D01*
X345921D01*
Y218256D01*
X345167D01*
Y222258D01*
X345921D01*
Y220601D01*
X347905D01*
Y222258D01*
X348643D01*
Y218256D01*
D02*
G37*
G36*
X343674Y222241D02*
X343806Y222225D01*
X343953Y222192D01*
X344101Y222127D01*
X344248Y222061D01*
X344379Y221963D01*
X344396Y221946D01*
X344429Y221913D01*
X344478Y221848D01*
X344544Y221749D01*
X344593Y221635D01*
X344642Y221487D01*
X344675Y221323D01*
X344691Y221126D01*
Y221093D01*
Y221028D01*
X344675Y220913D01*
X344642Y220782D01*
X344593Y220618D01*
X344511Y220454D01*
X344412Y220290D01*
X344265Y220142D01*
X344248Y220126D01*
X344183Y220077D01*
X344084Y220011D01*
X343953Y219945D01*
X343773Y219847D01*
X343543Y219765D01*
X343281Y219699D01*
X342986Y219634D01*
X342887Y220306D01*
X342903D01*
X342969Y220323D01*
X343068Y220339D01*
X343166Y220372D01*
X343428Y220454D01*
X343543Y220519D01*
X343641Y220585D01*
X343658Y220601D01*
X343691Y220618D01*
X343724Y220667D01*
X343773Y220733D01*
X343871Y220897D01*
X343887Y220995D01*
X343904Y221110D01*
Y221126D01*
Y221143D01*
X343887Y221241D01*
X343855Y221372D01*
X343773Y221471D01*
X343756Y221487D01*
X343674Y221536D01*
X343560Y221585D01*
X343412Y221602D01*
X342395D01*
Y218256D01*
X341657D01*
Y222258D01*
X343560D01*
X343674Y222241D01*
D02*
G37*
G36*
X357467Y218256D02*
X356712D01*
X354597Y221225D01*
Y218256D01*
X353875D01*
Y222258D01*
X354613D01*
X356745Y219339D01*
Y222258D01*
X357467D01*
Y218256D01*
D02*
G37*
G36*
X370128D02*
X369455D01*
Y221028D01*
X368340Y218256D01*
X367717D01*
X366601Y221028D01*
Y218256D01*
X365929D01*
Y222258D01*
X366684D01*
X368061Y219224D01*
X369390Y222258D01*
X370128D01*
Y218256D01*
D02*
G37*
G36*
X339542D02*
X338853D01*
Y221028D01*
X337770Y218256D01*
X337131D01*
X336016Y221028D01*
Y218256D01*
X335327D01*
Y222258D01*
X336114D01*
X337459Y219224D01*
X338804Y222258D01*
X339542D01*
Y218256D01*
D02*
G37*
G36*
X360927Y221618D02*
X359779D01*
Y218256D01*
X359041D01*
Y221618D01*
X357877D01*
Y222258D01*
X360927D01*
Y221618D01*
D02*
G37*
G36*
X353383Y218256D02*
X352596D01*
X352120Y219339D01*
X350792D01*
X351054Y219978D01*
X351858D01*
X351218Y221503D01*
X349890Y218256D01*
X349135D01*
X350841Y222258D01*
X351645D01*
X353383Y218256D01*
D02*
G37*
G36*
X334851D02*
X334031D01*
X333588Y219339D01*
X332243Y219339D01*
X332489Y219978D01*
X333310Y219978D01*
X332686Y221503D01*
X331342Y218256D01*
X330587D01*
X332293Y222258D01*
X333096Y222258D01*
X334851Y218256D01*
D02*
G37*
G36*
X330210Y221618D02*
X328209D01*
Y220601D01*
X330128D01*
Y219945D01*
X328176D01*
Y218896D01*
X330243D01*
Y218256D01*
X327455D01*
Y222258D01*
X330210D01*
Y221618D01*
D02*
G37*
G36*
X327045D02*
X325880D01*
Y218256D01*
X325142D01*
Y221618D01*
X323978D01*
Y222258D01*
X327045D01*
Y221618D01*
D02*
G37*
G36*
X363567Y222258D02*
X363781Y222225D01*
X364027Y222159D01*
X364273Y222077D01*
X364519Y221946D01*
X364716Y221766D01*
X364732Y221749D01*
X364797Y221667D01*
X364879Y221553D01*
X364978Y221389D01*
X365060Y221175D01*
X365142Y220913D01*
X365208Y220601D01*
X365224Y220241D01*
Y220224D01*
Y220191D01*
Y220142D01*
Y220077D01*
X365191Y219896D01*
X365158Y219683D01*
X365093Y219437D01*
X365011Y219175D01*
X364879Y218929D01*
X364716Y218715D01*
X364699Y218699D01*
X364617Y218633D01*
X364502Y218551D01*
X364338Y218469D01*
X364142Y218371D01*
X363879Y218289D01*
X363567Y218223D01*
X363223Y218207D01*
X363125D01*
X363059Y218223D01*
X362895Y218240D01*
X362682Y218273D01*
X362436Y218338D01*
X362190Y218420D01*
X361960Y218551D01*
X361747Y218715D01*
X361731Y218748D01*
X361665Y218814D01*
X361583Y218929D01*
X361501Y219109D01*
X361403Y219322D01*
X361304Y219585D01*
X361239Y219896D01*
X361206Y220241D01*
Y220257D01*
Y220290D01*
Y220339D01*
X361222Y220405D01*
X361239Y220585D01*
X361272Y220815D01*
X361337Y221061D01*
X361419Y221307D01*
X361550Y221553D01*
X361714Y221766D01*
X361731Y221782D01*
X361813Y221848D01*
X361928Y221930D01*
X362091Y222028D01*
X362305Y222127D01*
X362567Y222209D01*
X362879Y222274D01*
X363223Y222291D01*
X363387D01*
X363567Y222258D01*
D02*
G37*
G36*
X370997Y216190D02*
X323076Y216190D01*
Y216534D01*
X370997Y216534D01*
Y216190D01*
D02*
G37*
G36*
X349152Y214927D02*
X349283Y214894D01*
X349300D01*
X349316Y214878D01*
X349398Y214861D01*
X349496Y214812D01*
X349611Y214730D01*
X349431Y214435D01*
X349414Y214451D01*
X349349Y214484D01*
X349250Y214533D01*
X349152Y214566D01*
X349135Y214583D01*
X349070Y214599D01*
X348972Y214615D01*
X348873Y214632D01*
X348824D01*
X348709Y214599D01*
X348693D01*
X348676Y214583D01*
X348594Y214550D01*
X348562Y214517D01*
X348545Y214484D01*
X348512Y214435D01*
Y214419D01*
Y214402D01*
X348496Y214304D01*
Y214271D01*
X348512Y214205D01*
X348529Y214189D01*
X348562Y214107D01*
X348578Y214091D01*
X348643Y214041D01*
X348660D01*
X348693Y214025D01*
X348742D01*
X348808Y214009D01*
X348824D01*
X348840Y213992D01*
X348906Y213976D01*
X349086D01*
X349152Y213959D01*
X349234Y213943D01*
X349332Y213894D01*
X349349Y213877D01*
X349414Y213861D01*
X349464Y213812D01*
X349529Y213746D01*
X349546Y213730D01*
X349578Y213681D01*
X349611Y213615D01*
X349644Y213533D01*
Y213517D01*
X349660Y213467D01*
X349677Y213402D01*
Y213320D01*
Y213303D01*
Y213271D01*
X349660Y213205D01*
Y213139D01*
X349595Y212975D01*
X349546Y212893D01*
X349480Y212828D01*
X349464D01*
X349447Y212795D01*
X349398Y212779D01*
X349332Y212746D01*
X349250Y212713D01*
X349152Y212697D01*
X349021Y212664D01*
X348791D01*
X348726Y212680D01*
X348578Y212697D01*
X348414Y212729D01*
X348397D01*
X348381Y212746D01*
X348283Y212795D01*
X348151Y212861D01*
X348020Y212975D01*
X348250Y213238D01*
X348266Y213221D01*
X348332Y213172D01*
X348430Y213107D01*
X348529Y213057D01*
X348562D01*
X348643Y213041D01*
X348758Y213025D01*
X348889Y213008D01*
X348922D01*
X349021Y213025D01*
X349119Y213041D01*
X349218Y213074D01*
X349234Y213090D01*
X349283Y213139D01*
X349316Y213205D01*
X349332Y213320D01*
Y213336D01*
Y213385D01*
X349300Y213451D01*
X349267Y213517D01*
X349250Y213533D01*
X349218Y213566D01*
X349135Y213599D01*
X349037Y213631D01*
X348873D01*
X348840Y213648D01*
X348742Y213664D01*
X348726D01*
X348660Y213681D01*
X348562Y213697D01*
X348480Y213730D01*
X348463Y213746D01*
X348414Y213779D01*
X348348Y213828D01*
X348299Y213894D01*
X348283Y213910D01*
X348250Y213943D01*
X348217Y214009D01*
X348184Y214074D01*
Y214091D01*
X348168Y214140D01*
X348151Y214222D01*
Y214304D01*
Y214337D01*
Y214402D01*
X348168Y214484D01*
X348184Y214583D01*
X348201Y214599D01*
X348217Y214648D01*
X348266Y214714D01*
X348332Y214796D01*
X348348Y214812D01*
X348397Y214845D01*
X348480Y214878D01*
X348562Y214911D01*
X348578Y214927D01*
X348660Y214943D01*
X348758Y214960D01*
X349021D01*
X349152Y214927D01*
D02*
G37*
G36*
X326340Y214927D02*
X326487Y214894D01*
X326503D01*
X326520Y214878D01*
X326602Y214861D01*
X326700Y214812D01*
X326815Y214730D01*
X326635Y214435D01*
X326618Y214451D01*
X326553Y214484D01*
X326454Y214533D01*
X326356Y214566D01*
X326323Y214583D01*
X326257Y214599D01*
X326175Y214615D01*
X326061Y214632D01*
X326011D01*
X325913Y214599D01*
X325897D01*
X325880Y214583D01*
X325798Y214550D01*
X325765Y214517D01*
X325749Y214484D01*
X325716Y214435D01*
Y214419D01*
X325700Y214402D01*
X325683Y214304D01*
Y214271D01*
X325700Y214205D01*
X325716Y214189D01*
X325765Y214107D01*
X325782Y214091D01*
X325848Y214041D01*
X325864D01*
X325897Y214025D01*
X325946D01*
X326011Y214009D01*
X326028D01*
X326044Y213992D01*
X326110Y213976D01*
X326290D01*
X326356Y213959D01*
X326438Y213943D01*
X326536Y213894D01*
X326553Y213877D01*
X326618Y213861D01*
X326667Y213812D01*
X326733Y213746D01*
X326749Y213730D01*
X326782Y213681D01*
X326815Y213615D01*
X326848Y213533D01*
Y213517D01*
X326864Y213467D01*
X326881Y213402D01*
Y213320D01*
Y213303D01*
Y213271D01*
X326864Y213205D01*
X326848Y213139D01*
X326782Y212975D01*
X326733Y212893D01*
X326667Y212828D01*
X326651D01*
X326635Y212795D01*
X326586Y212779D01*
X326520Y212746D01*
X326438Y212713D01*
X326340Y212697D01*
X326225Y212664D01*
X325995D01*
X325929Y212680D01*
X325782Y212697D01*
X325618Y212729D01*
X325602D01*
X325585Y212746D01*
X325487Y212795D01*
X325356Y212861D01*
X325208Y212975D01*
X325454Y213238D01*
X325470Y213221D01*
X325536Y213172D01*
X325618Y213107D01*
X325733Y213057D01*
X325765D01*
X325848Y213041D01*
X325962Y213025D01*
X326094Y213008D01*
X326126D01*
X326225Y213025D01*
X326323Y213041D01*
X326421Y213074D01*
X326438Y213090D01*
X326487Y213139D01*
X326520Y213205D01*
X326536Y213320D01*
Y213336D01*
X326520Y213385D01*
X326503Y213451D01*
X326454Y213517D01*
X326438Y213533D01*
X326405Y213566D01*
X326340Y213599D01*
X326241Y213631D01*
X326077D01*
X326044Y213648D01*
X325995D01*
X325929Y213664D01*
X325913D01*
X325848Y213681D01*
X325765Y213697D01*
X325683Y213730D01*
X325667Y213746D01*
X325618Y213779D01*
X325552Y213828D01*
X325487Y213894D01*
X325470Y213910D01*
X325454Y213943D01*
X325405Y214009D01*
X325372Y214074D01*
Y214091D01*
X325356Y214140D01*
X325339Y214222D01*
X325323Y214304D01*
Y214337D01*
Y214402D01*
X325339Y214484D01*
X325372Y214583D01*
X325388Y214599D01*
X325421Y214648D01*
X325470Y214714D01*
X325536Y214796D01*
X325552Y214812D01*
X325602Y214845D01*
X325667Y214878D01*
X325749Y214911D01*
X325782Y214927D01*
X325848Y214943D01*
X325946Y214960D01*
X326208D01*
X326340Y214927D01*
D02*
G37*
G36*
X368717Y214943D02*
X368815Y214911D01*
X368832D01*
X368898Y214878D01*
X368980Y214845D01*
X369061Y214779D01*
X369078Y214763D01*
X369127Y214714D01*
X369176Y214648D01*
X369226Y214550D01*
X369242Y214533D01*
X369258Y214468D01*
X369307Y214386D01*
X369340Y214287D01*
X368947D01*
Y214304D01*
X368930Y214337D01*
X368898Y214419D01*
Y214435D01*
X368881Y214451D01*
X368815Y214533D01*
X368799Y214550D01*
X368766Y214566D01*
X368668Y214599D01*
X368652D01*
X368619Y214615D01*
X368520Y214632D01*
X368488Y214615D01*
X368422Y214599D01*
X368389D01*
X368307Y214583D01*
X368291Y214566D01*
X368242Y214517D01*
X368225Y214501D01*
X368176Y214468D01*
X368160Y214435D01*
X368110Y214369D01*
Y214337D01*
X368094Y214271D01*
Y214255D01*
X368077Y214238D01*
Y214173D01*
X368061Y214091D01*
Y214074D01*
Y214009D01*
Y213927D01*
Y213828D01*
Y213795D01*
Y213730D01*
Y213631D01*
Y213533D01*
Y213517D01*
X368077Y213467D01*
Y213402D01*
X368094Y213353D01*
Y213320D01*
X368110Y213254D01*
X368127Y213221D01*
X368176Y213156D01*
X368192Y213139D01*
X368242Y213090D01*
X368258Y213074D01*
X368307Y213057D01*
X368323D01*
X368340Y213041D01*
X368422Y213008D01*
X368553D01*
X368602Y213025D01*
X368684Y213041D01*
X368766Y213074D01*
X368783Y213090D01*
X368832Y213139D01*
X368898Y213205D01*
X368947Y213320D01*
X369340D01*
X369324Y213287D01*
X369307Y213221D01*
X369258Y213123D01*
X369209Y213025D01*
X369193Y213008D01*
X369160Y212959D01*
X369111Y212893D01*
X369045Y212811D01*
X369029Y212795D01*
X368980Y212779D01*
X368898Y212729D01*
X368799Y212697D01*
X368783D01*
X368717Y212680D01*
X368619Y212664D01*
X368455D01*
X368373Y212680D01*
X368291Y212697D01*
X368274D01*
X368225Y212713D01*
X368160Y212746D01*
X368077Y212779D01*
X368061Y212795D01*
X368028Y212828D01*
X367914Y212910D01*
Y212926D01*
X367881Y212959D01*
X367815Y213057D01*
X367799Y213074D01*
X367782Y213107D01*
Y213123D01*
Y213156D01*
X367766Y213172D01*
X367750Y213205D01*
Y213221D01*
Y213238D01*
Y213287D01*
Y213303D01*
X367733Y213336D01*
X367717Y213402D01*
X367700Y213484D01*
Y213500D01*
Y213582D01*
Y213681D01*
Y213828D01*
Y213845D01*
Y213861D01*
Y213943D01*
Y214041D01*
Y214140D01*
Y214156D01*
X367717Y214222D01*
X367733Y214271D01*
X367750Y214337D01*
Y214353D01*
Y214369D01*
X367766Y214451D01*
Y214468D01*
X367782Y214484D01*
X367815Y214566D01*
X367831Y214583D01*
X367848Y214615D01*
X367914Y214714D01*
X367930Y214730D01*
X367963Y214763D01*
X368012Y214812D01*
X368077Y214845D01*
X368094Y214861D01*
X368143Y214878D01*
X368209Y214911D01*
X368291Y214927D01*
X368307D01*
X368356Y214943D01*
X368438Y214960D01*
X368619D01*
X368717Y214943D01*
D02*
G37*
G36*
X361928D02*
X362026Y214911D01*
X362059D01*
X362108Y214878D01*
X362190Y214845D01*
X362272Y214779D01*
X362288Y214763D01*
X362337Y214714D01*
X362387Y214648D01*
X362436Y214550D01*
X362452Y214533D01*
X362469Y214468D01*
X362502Y214386D01*
X362534Y214287D01*
X362174D01*
Y214304D01*
X362157Y214337D01*
X362108Y214419D01*
Y214435D01*
X362091Y214451D01*
X362010Y214533D01*
Y214550D01*
X361977Y214566D01*
X361895Y214599D01*
X361878D01*
X361845Y214615D01*
X361747Y214632D01*
X361731D01*
X361698Y214615D01*
X361616Y214599D01*
X361583D01*
X361534Y214583D01*
X361501Y214566D01*
X361452Y214517D01*
X361436Y214501D01*
X361370Y214468D01*
X361353Y214435D01*
X361321Y214369D01*
X361304Y214337D01*
X361288Y214271D01*
Y214255D01*
Y214238D01*
X361272Y214173D01*
Y214091D01*
Y214074D01*
Y214009D01*
Y213927D01*
Y213828D01*
Y213795D01*
Y213730D01*
Y213631D01*
Y213533D01*
Y213517D01*
Y213467D01*
Y213402D01*
X361288Y213353D01*
X361304Y213320D01*
X361321Y213254D01*
X361337Y213221D01*
X361370Y213156D01*
X361386D01*
X361403Y213139D01*
X361452Y213090D01*
X361468Y213074D01*
X361534Y213057D01*
X361550Y213041D01*
X361616Y213008D01*
X361764D01*
X361829Y213025D01*
X361911Y213041D01*
X361993Y213074D01*
X362010Y213090D01*
X362059Y213139D01*
X362124Y213205D01*
X362174Y213320D01*
X362534D01*
Y213287D01*
X362518Y213221D01*
X362485Y213123D01*
X362436Y213025D01*
X362420Y213008D01*
X362387Y212959D01*
X362321Y212893D01*
X362239Y212811D01*
X362223Y212795D01*
X362174Y212779D01*
X362108Y212729D01*
X362010Y212697D01*
X361993D01*
X361928Y212680D01*
X361845Y212664D01*
X361665D01*
X361567Y212680D01*
X361485Y212697D01*
X361468D01*
X361419Y212713D01*
X361288Y212779D01*
X361272Y212795D01*
X361239Y212828D01*
X361124Y212910D01*
X361107Y212926D01*
X361091Y212959D01*
X361009Y213057D01*
Y213074D01*
X360993Y213107D01*
Y213123D01*
X360976Y213156D01*
X360960Y213172D01*
X360944Y213205D01*
Y213221D01*
Y213238D01*
Y213287D01*
Y213303D01*
Y213336D01*
X360927Y213402D01*
Y213484D01*
Y213500D01*
Y213582D01*
Y213681D01*
Y213828D01*
Y213845D01*
Y213861D01*
Y213943D01*
Y214041D01*
Y214140D01*
Y214156D01*
Y214222D01*
Y214271D01*
X360944Y214337D01*
Y214353D01*
X360960Y214369D01*
X360976Y214451D01*
Y214468D01*
X360993Y214484D01*
X361009Y214566D01*
X361026Y214583D01*
X361042Y214615D01*
X361124Y214714D01*
X361140Y214730D01*
X361173Y214763D01*
X361288Y214845D01*
X361304Y214861D01*
X361337Y214878D01*
X361403Y214911D01*
X361485Y214927D01*
X361501D01*
X361567Y214943D01*
X361649Y214960D01*
X361845D01*
X361928Y214943D01*
D02*
G37*
G36*
X340427Y212680D02*
X340083D01*
Y214091D01*
X340066D01*
X339607Y213008D01*
X339312D01*
X338836Y214091D01*
X338820D01*
Y212680D01*
X338475D01*
Y214943D01*
X338804D01*
X339459Y213467D01*
X340099Y214943D01*
X340427D01*
Y212680D01*
D02*
G37*
G36*
X342641Y213435D02*
Y213402D01*
Y213336D01*
X342608Y213238D01*
X342576Y213123D01*
X342559Y213107D01*
X342543Y213041D01*
X342477Y212959D01*
X342395Y212877D01*
X342379Y212861D01*
X342330Y212811D01*
X342248Y212762D01*
X342149Y212713D01*
X342116D01*
X342051Y212697D01*
X341952Y212680D01*
X341838Y212664D01*
X341723D01*
X341624Y212680D01*
X341510Y212713D01*
X341493Y212729D01*
X341427Y212746D01*
X341346Y212811D01*
X341264Y212877D01*
X341247Y212893D01*
X341198Y212959D01*
X341132Y213025D01*
X341067Y213123D01*
Y213156D01*
X341050Y213221D01*
X341034Y213320D01*
X341018Y213435D01*
Y214943D01*
X341362D01*
Y213484D01*
Y213467D01*
Y213418D01*
X341395Y213287D01*
Y213271D01*
X341427Y213238D01*
X341460Y213189D01*
X341510Y213123D01*
X341526Y213107D01*
X341559Y213090D01*
X341641Y213025D01*
X341690D01*
X341756Y213008D01*
X341903D01*
X342018Y213025D01*
X342034D01*
X342067Y213057D01*
X342165Y213123D01*
X342182Y213139D01*
X342198Y213172D01*
X342264Y213287D01*
Y213303D01*
X342280Y213336D01*
X342297Y213402D01*
Y213484D01*
Y214943D01*
X342641D01*
Y213435D01*
D02*
G37*
G36*
X330866Y213435D02*
Y213402D01*
Y213336D01*
X330833Y213238D01*
X330800Y213123D01*
X330784Y213107D01*
X330767Y213041D01*
X330702Y212959D01*
X330620Y212877D01*
X330604Y212861D01*
X330554Y212811D01*
X330472Y212762D01*
X330374Y212713D01*
X330341D01*
X330276Y212697D01*
X330177Y212680D01*
X330046Y212664D01*
X329947D01*
X329849Y212680D01*
X329734Y212713D01*
X329718Y212729D01*
X329652Y212746D01*
X329570Y212811D01*
X329488Y212877D01*
X329472Y212893D01*
X329423Y212959D01*
X329357Y213025D01*
X329292Y213123D01*
Y213156D01*
X329275Y213221D01*
X329259Y213320D01*
X329242Y213435D01*
Y214943D01*
X329587D01*
Y213484D01*
Y213467D01*
Y213418D01*
X329620Y213287D01*
Y213271D01*
X329652Y213238D01*
X329718Y213123D01*
X329734Y213107D01*
X329767Y213090D01*
X329866Y213025D01*
X329915D01*
X329980Y213008D01*
X330177D01*
X330226Y213025D01*
X330243D01*
X330276Y213057D01*
X330374Y213123D01*
X330390Y213139D01*
X330423Y213172D01*
X330456Y213221D01*
X330489Y213287D01*
Y213303D01*
X330505Y213336D01*
X330521Y213402D01*
Y213484D01*
Y214943D01*
X330866D01*
Y213435D01*
D02*
G37*
G36*
X367159Y212680D02*
X366815D01*
Y214943D01*
X367159D01*
Y212680D01*
D02*
G37*
G36*
X365765Y214927D02*
X365847Y214911D01*
X365863D01*
X365913Y214894D01*
X366044Y214812D01*
X366060Y214796D01*
X366109Y214747D01*
X366159Y214681D01*
X366208Y214599D01*
X366224Y214583D01*
X366241Y214517D01*
X366257Y214435D01*
X366273Y214320D01*
Y214304D01*
Y214287D01*
X366257Y214173D01*
X366224Y214041D01*
X366159Y213910D01*
X366142Y213894D01*
X366077Y213828D01*
X365978Y213746D01*
X365847Y213681D01*
X366355Y212680D01*
X365962D01*
X365470Y213648D01*
X365043D01*
Y212680D01*
X364699D01*
Y214943D01*
X365667D01*
X365765Y214927D01*
D02*
G37*
G36*
X364305Y214648D02*
X363682D01*
Y212680D01*
X363338D01*
Y214648D01*
X362715D01*
Y214943D01*
X364305D01*
Y214648D01*
D02*
G37*
G36*
X360517Y214632D02*
X359402D01*
Y213976D01*
X360353D01*
Y213664D01*
X359402D01*
Y213008D01*
X360517D01*
Y212680D01*
X359057D01*
Y214943D01*
X360517D01*
Y214632D01*
D02*
G37*
G36*
X357467Y213008D02*
X358582D01*
Y212680D01*
X357122D01*
Y214943D01*
X357467D01*
Y213008D01*
D02*
G37*
G36*
X356630Y214632D02*
X355532D01*
Y213976D01*
X356483D01*
Y213664D01*
X355532D01*
Y213008D01*
X356630D01*
Y212680D01*
X355187D01*
Y214943D01*
X356630D01*
Y214632D01*
D02*
G37*
G36*
X353760D02*
X352661D01*
Y213976D01*
X353613D01*
Y213664D01*
X352661D01*
Y213008D01*
X353760D01*
Y212680D01*
X352317D01*
Y214943D01*
X353760D01*
Y214632D01*
D02*
G37*
G36*
X351923Y212680D02*
X351546D01*
X351382Y213172D01*
X350513D01*
X350349Y212680D01*
X349972D01*
X350808Y214943D01*
X351087D01*
X351923Y212680D01*
D02*
G37*
G36*
X346889D02*
X346512D01*
X346347Y213172D01*
X345478D01*
X345314Y212680D01*
X344937D01*
X345774Y214943D01*
X346052D01*
X346889Y212680D01*
D02*
G37*
G36*
X343576Y213008D02*
X344707D01*
Y212680D01*
X343248D01*
Y214943D01*
X343576D01*
Y213008D01*
D02*
G37*
G36*
X337426Y214927D02*
X337508Y214911D01*
X337524D01*
X337574Y214894D01*
X337655Y214861D01*
X337737Y214812D01*
X337754Y214796D01*
X337787Y214747D01*
X337836Y214681D01*
X337885Y214599D01*
X337901Y214583D01*
X337918Y214517D01*
X337934Y214435D01*
X337951Y214320D01*
Y214304D01*
Y214287D01*
X337934Y214173D01*
X337901Y214041D01*
X337836Y213910D01*
X337820Y213894D01*
X337754Y213828D01*
X337655Y213746D01*
X337508Y213681D01*
X338049Y212680D01*
X337623D01*
X337163Y213648D01*
X336704D01*
Y212680D01*
X336360D01*
Y214943D01*
X337344D01*
X337426Y214927D01*
D02*
G37*
G36*
X333834Y214632D02*
X332735D01*
Y213959D01*
X333687D01*
Y213648D01*
X332735D01*
Y212680D01*
X332391Y212680D01*
Y214943D01*
X333834Y214943D01*
Y214632D01*
D02*
G37*
G36*
X328865Y214632D02*
X327750D01*
Y213959D01*
X328701D01*
Y213648D01*
X327750D01*
Y212680D01*
X327406D01*
Y214943D01*
X328865D01*
Y214632D01*
D02*
G37*
G36*
X335163Y214943D02*
X335245Y214927D01*
X335261D01*
X335310Y214911D01*
X335376Y214894D01*
X335441Y214845D01*
X335458Y214829D01*
X335507Y214812D01*
X335606Y214714D01*
X335622Y214697D01*
X335638Y214665D01*
X335704Y214566D01*
X335720Y214533D01*
X335753Y214451D01*
X335770Y214419D01*
X335802Y214337D01*
Y214320D01*
Y214287D01*
Y214222D01*
Y214140D01*
Y214123D01*
X335819Y214058D01*
Y213959D01*
Y213828D01*
Y213812D01*
Y213795D01*
Y213713D01*
Y213599D01*
X335802Y213484D01*
Y213467D01*
Y213418D01*
Y213353D01*
Y213287D01*
Y213271D01*
X335786Y213254D01*
X335753Y213156D01*
X335737Y213123D01*
X335704Y213057D01*
Y213041D01*
X335687Y213008D01*
X335606Y212910D01*
X335589Y212893D01*
X335556Y212877D01*
X335507Y212828D01*
X335441Y212779D01*
X335425D01*
X335392Y212746D01*
X335327Y212729D01*
X335245Y212697D01*
X335228D01*
X335179Y212680D01*
X335097Y212664D01*
X334917D01*
X334835Y212680D01*
X334753Y212697D01*
X334736D01*
X334687Y212713D01*
X334556Y212779D01*
X334540Y212795D01*
X334507Y212828D01*
X334392Y212910D01*
X334376Y212926D01*
X334359Y212959D01*
X334294Y213057D01*
X334277Y213074D01*
X334261Y213107D01*
Y213123D01*
X334244Y213156D01*
Y213172D01*
X334228Y213205D01*
Y213221D01*
Y213238D01*
X334211Y213287D01*
Y213303D01*
Y213336D01*
Y213402D01*
X334195Y213484D01*
Y213500D01*
Y213582D01*
X334179Y213681D01*
Y213828D01*
Y213845D01*
Y213861D01*
Y213943D01*
Y214041D01*
X334195Y214140D01*
Y214156D01*
X334211Y214222D01*
Y214271D01*
Y214337D01*
Y214353D01*
X334228Y214369D01*
X334244Y214451D01*
Y214468D01*
X334261Y214484D01*
X334294Y214566D01*
Y214583D01*
X334326Y214615D01*
X334392Y214714D01*
X334408Y214730D01*
X334441Y214763D01*
X334490Y214812D01*
X334556Y214845D01*
X334572Y214861D01*
X334605Y214878D01*
X334671Y214911D01*
X334753Y214927D01*
X334769D01*
X334835Y214943D01*
X334900Y214960D01*
X335081D01*
X335163Y214943D01*
D02*
G37*
G36*
X317959Y224652D02*
X317975Y224619D01*
X318025Y224570D01*
X318090Y224488D01*
X318156Y224406D01*
X318238Y224291D01*
X318336Y224160D01*
X318435Y224029D01*
X318664Y223701D01*
X318878Y223324D01*
X319107Y222897D01*
X319304Y222455D01*
Y222438D01*
X319320Y222405D01*
X319353Y222340D01*
X319386Y222241D01*
X319419Y222127D01*
X319468Y221995D01*
X319517Y221848D01*
X319566Y221667D01*
X319665Y221290D01*
X319763Y220864D01*
X319829Y220388D01*
X319878Y219896D01*
Y219880D01*
Y219831D01*
Y219765D01*
Y219667D01*
Y219552D01*
Y219404D01*
Y219240D01*
X319862Y219060D01*
X319829Y218666D01*
X319779Y218223D01*
X319681Y217748D01*
X319566Y217256D01*
Y217239D01*
X319550Y217207D01*
X319533Y217125D01*
X319501Y217043D01*
X319451Y216928D01*
X319402Y216797D01*
X319353Y216633D01*
X319287Y216469D01*
X319124Y216108D01*
X318927Y215714D01*
X318697Y215288D01*
X318418Y214878D01*
X318402Y214861D01*
X318386Y214829D01*
X318336Y214779D01*
X318271Y214697D01*
X318205Y214599D01*
X318107Y214484D01*
X317894Y214238D01*
X317615Y213943D01*
X317287Y213631D01*
X316926Y213303D01*
X316516Y213008D01*
X316499D01*
X316467Y212975D01*
X316401Y212943D01*
X316319Y212893D01*
X316221Y212828D01*
X316106Y212746D01*
X315958Y212664D01*
X315811Y212582D01*
X315450Y212401D01*
X315040Y212221D01*
X314597Y212041D01*
X314122Y211893D01*
X314105D01*
X314039Y211877D01*
X313925Y211844D01*
X313793Y211811D01*
X313630Y211778D01*
X313465Y211745D01*
X313072Y211680D01*
X313055D01*
X312990Y211663D01*
X312875D01*
X312744Y211647D01*
X312596Y211631D01*
X312416D01*
X312022Y211614D01*
X311891D01*
X311743Y211631D01*
X311547D01*
X311301Y211647D01*
X311055Y211680D01*
X310776Y211713D01*
X310481Y211762D01*
X310448D01*
X310349Y211795D01*
X310202Y211827D01*
X310005Y211877D01*
X309775Y211942D01*
X309529Y212024D01*
X308988Y212221D01*
X309120Y212565D01*
X309136D01*
X309169Y212549D01*
X309234Y212516D01*
X309333Y212483D01*
X309448Y212434D01*
X309579Y212401D01*
X309726Y212352D01*
X309890Y212303D01*
X310267Y212188D01*
X310694Y212090D01*
X311137Y212024D01*
X311612Y211975D01*
X312400D01*
X312760Y212008D01*
X313187Y212057D01*
X313630Y212123D01*
X314072Y212237D01*
X314089D01*
X314122Y212254D01*
X314187Y212270D01*
X314269Y212303D01*
X314384Y212336D01*
X314499Y212385D01*
X314794Y212500D01*
X315138Y212647D01*
X315515Y212828D01*
X315909Y213057D01*
X316303Y213303D01*
X316319Y213320D01*
X316352Y213336D01*
X316401Y213369D01*
X316483Y213435D01*
X316565Y213500D01*
X316680Y213582D01*
X316926Y213795D01*
X317205Y214058D01*
X317516Y214353D01*
X317828Y214697D01*
X318123Y215091D01*
X318140Y215107D01*
X318156Y215140D01*
X318205Y215206D01*
X318254Y215271D01*
X318320Y215370D01*
X318386Y215501D01*
X318467Y215632D01*
X318549Y215780D01*
X318730Y216124D01*
X318927Y216518D01*
X319091Y216928D01*
X319238Y217387D01*
Y217403D01*
X319255Y217436D01*
X319271Y217502D01*
X319287Y217600D01*
X319320Y217715D01*
X319353Y217846D01*
X319386Y217994D01*
X319419Y218158D01*
X319468Y218519D01*
X319517Y218945D01*
X319533Y219371D01*
Y219831D01*
Y219847D01*
Y219880D01*
Y219945D01*
X319517Y220044D01*
X319501Y220159D01*
Y220290D01*
X319468Y220437D01*
X319451Y220601D01*
X319386Y220962D01*
X319287Y221372D01*
X319173Y221815D01*
X319009Y222258D01*
Y222274D01*
X318992Y222307D01*
X318959Y222373D01*
X318927Y222455D01*
X318878Y222569D01*
X318812Y222684D01*
X318664Y222979D01*
X318484Y223307D01*
X318254Y223668D01*
X317975Y224045D01*
X317664Y224423D01*
X317943Y224669D01*
X317959Y224652D01*
D02*
G37*
G36*
X319304Y228195D02*
X319320Y228145D01*
X319337Y228129D01*
X319353Y228113D01*
X319337Y228096D01*
X319320Y228080D01*
X319271Y228031D01*
X319222Y227965D01*
X319058Y227785D01*
X318845Y227555D01*
X318599Y227276D01*
X318336Y226965D01*
X318041Y226637D01*
X317729Y226292D01*
X317713Y226276D01*
X317697Y226259D01*
X317648Y226210D01*
X317598Y226145D01*
X317434Y225964D01*
X317221Y225735D01*
X316991Y225456D01*
X316713Y225144D01*
X316418Y224816D01*
X316122Y224472D01*
X316106Y224455D01*
X316090Y224439D01*
X316040Y224390D01*
X315991Y224324D01*
X315827Y224144D01*
X315614Y223914D01*
X315368Y223635D01*
X315089Y223324D01*
X314794Y222996D01*
X314482Y222651D01*
X314466Y222635D01*
X314450Y222619D01*
X314400Y222569D01*
X314351Y222504D01*
X314187Y222323D01*
X313974Y222094D01*
X313728Y221815D01*
X313449Y221503D01*
X313154Y221175D01*
X312842Y220831D01*
X312859D01*
X312892Y220815D01*
X312941Y220798D01*
X313006Y220782D01*
X313088Y220765D01*
X313203Y220733D01*
X313449Y220667D01*
X313744Y220585D01*
X314056Y220503D01*
X314400Y220405D01*
X314761Y220306D01*
X314777D01*
X314810Y220290D01*
X314860D01*
X314925Y220257D01*
X315007Y220241D01*
X315122Y220208D01*
X315368Y220159D01*
X315647Y220077D01*
X315975Y219995D01*
X316336Y219896D01*
X316696Y219798D01*
X316680Y219781D01*
X316614Y219732D01*
X316532Y219683D01*
X316450Y219617D01*
X316434Y219601D01*
X316385Y219568D01*
X316319Y219503D01*
X316237Y219437D01*
X316221Y219421D01*
X316172Y219388D01*
X316090Y219322D01*
X315991Y219257D01*
X315860Y219158D01*
X315696Y219043D01*
X315515Y218912D01*
X315319Y218765D01*
X315106Y218601D01*
X314876Y218437D01*
X314384Y218059D01*
X313859Y217666D01*
X313318Y217256D01*
X313301Y217239D01*
X313252Y217207D01*
X313170Y217141D01*
X313072Y217075D01*
X312941Y216977D01*
X312793Y216862D01*
X312613Y216731D01*
X312416Y216583D01*
X312219Y216419D01*
X311989Y216255D01*
X311497Y215878D01*
X310973Y215485D01*
X310432Y215075D01*
X310415Y215058D01*
X310366Y215025D01*
X310284Y214976D01*
X310186Y214894D01*
X310054Y214796D01*
X309907Y214681D01*
X309726Y214550D01*
X309529Y214402D01*
X309316Y214238D01*
X309087Y214074D01*
X308611Y213713D01*
X308086Y213320D01*
X307545Y212910D01*
X307529Y212893D01*
X307480Y212861D01*
X307398Y212795D01*
X307299Y212729D01*
X307168Y212631D01*
X307004Y212500D01*
X306840Y212369D01*
X306643Y212221D01*
X306430Y212073D01*
X306200Y211893D01*
X305708Y211532D01*
X305184Y211139D01*
X304642Y210745D01*
X304626Y210729D01*
X304593Y210696D01*
X304527Y210630D01*
X304446Y210565D01*
X304429Y210548D01*
X304380Y210532D01*
X304331Y210515D01*
X304314Y210532D01*
X304298Y210548D01*
Y210565D01*
X304281Y210614D01*
X304298Y210663D01*
X304363Y210729D01*
X304380Y210745D01*
X304446Y210778D01*
X304495Y210827D01*
X304560Y210876D01*
Y210893D01*
X304593Y210909D01*
X304675Y210991D01*
X304806Y211139D01*
X304970Y211319D01*
X305167Y211532D01*
X305397Y211778D01*
X305643Y212041D01*
X305889Y212303D01*
Y212319D01*
X305922Y212336D01*
X306003Y212418D01*
X306135Y212565D01*
X306299Y212746D01*
X306495Y212959D01*
X306725Y213189D01*
X306955Y213451D01*
X307201Y213713D01*
Y213730D01*
X307234Y213746D01*
X307315Y213828D01*
X307447Y213976D01*
X307611Y214156D01*
X307807Y214369D01*
X308037Y214615D01*
X308283Y214878D01*
X308529Y215140D01*
Y215157D01*
X308562Y215173D01*
X308644Y215255D01*
X308775Y215403D01*
X308939Y215583D01*
X309136Y215796D01*
X309366Y216026D01*
X309612Y216288D01*
X309858Y216551D01*
X309874Y216567D01*
X309907Y216600D01*
X309956Y216649D01*
X310021Y216731D01*
X310169Y216895D01*
X310366Y217092D01*
X310382Y217108D01*
X310415Y217141D01*
X310464Y217190D01*
X310530Y217272D01*
X310694Y217469D01*
X310874Y217699D01*
X310858D01*
X310841Y217715D01*
X310743Y217748D01*
X310579Y217797D01*
X310382Y217863D01*
X310136Y217945D01*
X309874Y218043D01*
X309595Y218125D01*
X309300Y218223D01*
X309283D01*
X309267Y218240D01*
X309169Y218273D01*
X309021Y218322D01*
X308808Y218387D01*
X308578Y218469D01*
X308316Y218568D01*
X308021Y218666D01*
X307726Y218765D01*
X307742Y218781D01*
X307791Y218814D01*
X307873Y218879D01*
X307972Y218978D01*
X308103Y219076D01*
X308267Y219207D01*
X308447Y219355D01*
X308644Y219519D01*
X308857Y219683D01*
X309087Y219880D01*
X309579Y220273D01*
X310104Y220700D01*
X310645Y221143D01*
X310661Y221159D01*
X310710Y221192D01*
X310792Y221257D01*
X310891Y221339D01*
X311022Y221454D01*
X311186Y221569D01*
X311366Y221717D01*
X311563Y221881D01*
X311760Y222045D01*
X311989Y222225D01*
X312481Y222619D01*
X313006Y223045D01*
X313547Y223488D01*
X313564Y223504D01*
X313613Y223537D01*
X313695Y223603D01*
X313793Y223701D01*
X313925Y223799D01*
X314072Y223931D01*
X314253Y224078D01*
X314450Y224242D01*
X314663Y224406D01*
X314876Y224603D01*
X315368Y224997D01*
X315893Y225423D01*
X316418Y225866D01*
X316434Y225882D01*
X316483Y225915D01*
X316565Y225981D01*
X316664Y226063D01*
X316795Y226177D01*
X316959Y226292D01*
X317123Y226440D01*
X317319Y226604D01*
X317533Y226768D01*
X317762Y226948D01*
X318238Y227342D01*
X318763Y227768D01*
X319304Y228211D01*
Y228195D01*
D02*
G37*
%LPC*%
G36*
X309257Y205317D02*
X308080Y202775D01*
X309112D01*
X309257Y205317D01*
D02*
G37*
G36*
X363223Y221635D02*
X363125D01*
X363010Y221618D01*
X362879Y221585D01*
X362715Y221553D01*
X362567Y221487D01*
X362420Y221405D01*
X362288Y221290D01*
X362272Y221274D01*
X362239Y221225D01*
X362190Y221143D01*
X362141Y221028D01*
X362075Y220880D01*
X362026Y220716D01*
X361993Y220503D01*
X361977Y220257D01*
Y220224D01*
Y220142D01*
X361993Y220027D01*
X362010Y219863D01*
X362059Y219699D01*
X362108Y219519D01*
X362190Y219355D01*
X362288Y219207D01*
X362305Y219191D01*
X362354Y219158D01*
X362420Y219093D01*
X362518Y219027D01*
X362649Y218961D01*
X362813Y218896D01*
X363010Y218863D01*
X363223Y218847D01*
X363321D01*
X363436Y218863D01*
X363567Y218896D01*
X363715Y218929D01*
X363863Y218994D01*
X364010Y219093D01*
X364125Y219207D01*
X364142Y219224D01*
X364174Y219273D01*
X364224Y219355D01*
X364289Y219470D01*
X364338Y219617D01*
X364387Y219798D01*
X364420Y220011D01*
X364437Y220257D01*
Y220290D01*
Y220372D01*
X364420Y220487D01*
X364404Y220651D01*
X364355Y220815D01*
X364305Y220979D01*
X364224Y221143D01*
X364125Y221290D01*
X364109Y221307D01*
X364076Y221339D01*
X363994Y221405D01*
X363896Y221471D01*
X363781Y221520D01*
X363617Y221585D01*
X363436Y221618D01*
X363223Y221635D01*
D02*
G37*
G36*
X365683Y214648D02*
X365043D01*
Y213959D01*
X365634D01*
X365732Y213976D01*
X365749D01*
X365781Y213992D01*
X365863Y214058D01*
X365880Y214074D01*
X365896Y214091D01*
X365929Y214173D01*
Y214189D01*
X365946Y214222D01*
Y214320D01*
Y214337D01*
Y214369D01*
X365913Y214468D01*
Y214484D01*
X365896Y214501D01*
X365847Y214583D01*
X365831D01*
X365814Y214599D01*
X365716Y214632D01*
X365700D01*
X365683Y214648D01*
D02*
G37*
G36*
X350939Y214484D02*
X350611Y213484D01*
X351268D01*
X350939Y214484D01*
D02*
G37*
G36*
X345921D02*
X345577Y213484D01*
X346249D01*
X345921Y214484D01*
D02*
G37*
G36*
X337360Y214648D02*
X336704D01*
Y213959D01*
X337295D01*
X337409Y213976D01*
X337426D01*
X337459Y213992D01*
X337491Y214025D01*
X337524Y214058D01*
X337541Y214074D01*
X337557Y214091D01*
X337590Y214173D01*
Y214189D01*
X337606Y214222D01*
X337623Y214320D01*
Y214337D01*
Y214369D01*
X337590Y214468D01*
Y214484D01*
X337574Y214501D01*
X337557Y214550D01*
X337508Y214583D01*
X337475Y214599D01*
X337442Y214615D01*
X337393Y214632D01*
X337377D01*
X337360Y214648D01*
D02*
G37*
G36*
X334999Y214632D02*
X334966Y214615D01*
X334884Y214599D01*
X334851D01*
X334786Y214583D01*
X334753Y214566D01*
X334703Y214517D01*
X334687Y214501D01*
X334654Y214468D01*
X334638Y214435D01*
X334589Y214369D01*
X334572Y214337D01*
X334556Y214271D01*
Y214255D01*
Y214238D01*
Y214173D01*
X334540Y214091D01*
Y214074D01*
Y214009D01*
Y213927D01*
Y213828D01*
Y213795D01*
Y213730D01*
Y213631D01*
Y213533D01*
Y213517D01*
X334556Y213467D01*
Y213402D01*
Y213353D01*
X334572Y213320D01*
X334589Y213254D01*
X334605Y213221D01*
X334654Y213156D01*
X334671Y213139D01*
X334703Y213090D01*
X334720Y213074D01*
X334786Y213057D01*
X334818Y213041D01*
X334884Y213008D01*
X335130D01*
X335146Y213025D01*
X335212Y213057D01*
X335228D01*
X335245Y213074D01*
X335294Y213090D01*
X335310Y213107D01*
X335343Y213156D01*
Y213172D01*
X335360Y213189D01*
X335392Y213254D01*
Y213271D01*
X335409Y213287D01*
X335441Y213353D01*
Y213369D01*
Y213402D01*
Y213451D01*
Y213533D01*
Y213549D01*
X335458Y213615D01*
Y213713D01*
Y213828D01*
Y213861D01*
Y213910D01*
Y214009D01*
X335441Y214091D01*
Y214107D01*
Y214156D01*
Y214222D01*
Y214271D01*
Y214287D01*
X335425Y214304D01*
X335392Y214369D01*
Y214386D01*
X335376Y214402D01*
X335343Y214468D01*
X335327Y214484D01*
X335294Y214517D01*
X335278Y214533D01*
X335212Y214583D01*
X335195Y214599D01*
X335114D01*
X335081Y214615D01*
X334999Y214632D01*
D02*
G37*
%LPD*%
D10*
X275492Y46422D02*
G03*
X275492Y46422I-492J0D01*
G01*
X350295D02*
G03*
X350295Y46422I-492J0D01*
G01*
X122146D02*
G03*
X122146Y46422I-492J0D01*
G01*
X196752D02*
G03*
X196752Y46422I-492J0D01*
G01*
X328543Y65354D02*
G03*
X328543Y65354I-492J0D01*
G01*
X253740D02*
G03*
X253740Y65354I-492J0D01*
G01*
X175000D02*
G03*
X175000Y65354I-492J0D01*
G01*
X100394Y65256D02*
G03*
X100394Y65256I-492J0D01*
G01*
X405217Y260827D02*
G03*
X405217Y260827I-492J0D01*
G01*
X73721Y244587D02*
G03*
X73721Y244587I-492J0D01*
G01*
X121063Y246457D02*
G03*
X121063Y246457I-492J0D01*
G01*
X201673Y246555D02*
G03*
X201673Y246555I-492J0D01*
G01*
X240846Y246358D02*
G03*
X240846Y246358I-492J0D01*
G01*
X254035Y257776D02*
G03*
X254035Y257776I-492J0D01*
G01*
X318602Y260827D02*
G03*
X318602Y260827I-492J0D01*
G01*
X168957Y256594D02*
G03*
X168957Y256594I-492J0D01*
G01*
D11*
X359842Y39616D02*
G03*
X359842Y40896I0J640D01*
G01*
X285039Y40010D02*
G03*
X285039Y41289I0J640D01*
G01*
X206299Y40010D02*
G03*
X206299Y41289I0J640D01*
G01*
X131988Y40896D02*
G03*
X131988Y42175I0J640D01*
G01*
X357874Y36220D02*
Y37795D01*
X283268Y36024D02*
Y37795D01*
X204331Y36220D02*
Y37795D01*
X129921Y36122D02*
Y37894D01*
X273858Y39040D02*
Y42977D01*
X270807Y39040D02*
X273858D01*
X262047D02*
Y42977D01*
Y39040D02*
X265098D01*
X348661D02*
Y42977D01*
X345610Y39040D02*
X348661D01*
X336850D02*
Y42977D01*
Y39040D02*
X339902D01*
X120512D02*
Y42977D01*
X117461Y39040D02*
X120512D01*
X108701D02*
Y42977D01*
Y39040D02*
X111752D01*
X195118D02*
Y42977D01*
X192067Y39040D02*
X195118D01*
X183307D02*
Y42977D01*
Y39040D02*
X186358D01*
X359842Y39616D02*
Y40984D01*
Y39528D02*
Y40896D01*
Y39528D02*
X367520D01*
Y40984D01*
X359842D02*
X367520D01*
X285039Y40010D02*
Y41378D01*
Y39921D02*
Y41289D01*
Y39921D02*
X292717D01*
Y41378D01*
X285039D02*
X292717D01*
X206299Y40010D02*
Y41378D01*
Y39921D02*
Y41289D01*
Y39921D02*
X213976D01*
Y41378D01*
X206299D02*
X213976D01*
X131988Y40896D02*
Y42264D01*
Y40807D02*
Y42175D01*
Y40807D02*
X139665D01*
Y42264D01*
X131988D02*
X139665D01*
X330610Y67028D02*
X349508D01*
X330610Y51279D02*
X349508D01*
X330610Y64764D02*
Y67028D01*
X349508Y64764D02*
Y67028D01*
X330610Y51279D02*
Y53543D01*
X349508Y51279D02*
Y53543D01*
X255807Y67028D02*
X274705D01*
X255807Y51279D02*
X274705D01*
X255807Y64764D02*
Y67028D01*
X274705Y64764D02*
Y67028D01*
X255807Y51279D02*
Y53543D01*
X274705Y51279D02*
Y53543D01*
X177067Y67028D02*
X195965D01*
X177067Y51279D02*
X195965D01*
X177067Y64764D02*
Y67028D01*
X195965Y64764D02*
Y67028D01*
X177067Y51279D02*
Y53543D01*
X195965Y51279D02*
Y53543D01*
X102461Y66929D02*
X121358D01*
X102461Y51181D02*
X121358D01*
X102461Y64665D02*
Y66929D01*
X121358Y64665D02*
Y66929D01*
X102461Y51181D02*
Y53445D01*
X121358Y51181D02*
Y53445D01*
X408858Y247835D02*
X417913D01*
X408858Y260039D02*
X417913D01*
Y247835D02*
Y260039D01*
X408858Y247835D02*
Y260039D01*
X67716Y245669D02*
X70079D01*
X67716Y254331D02*
X70079D01*
Y245669D02*
Y254331D01*
X67716Y245669D02*
Y254331D01*
X114961Y247638D02*
Y256299D01*
X117323Y247638D02*
Y256299D01*
X114961D02*
X117323D01*
X114961Y247638D02*
X117323D01*
X195669D02*
X198031D01*
X195669Y256299D02*
X198031D01*
Y247638D02*
Y256299D01*
X195669Y247638D02*
Y256299D01*
X231102Y256102D02*
X237402D01*
X231102Y247835D02*
X237402D01*
X231102D02*
Y256102D01*
X237402Y247835D02*
Y256102D01*
X256693Y247835D02*
Y256102D01*
X262992Y247835D02*
Y256102D01*
X256693D02*
X262992D01*
X256693Y247835D02*
X262992D01*
X322244Y247835D02*
X331299D01*
X322244Y260039D02*
X331299D01*
Y247835D02*
Y260039D01*
X322244Y247835D02*
Y260039D01*
X167323Y249213D02*
Y253150D01*
X164272Y249213D02*
X167323D01*
X155512D02*
Y253150D01*
Y249213D02*
X158563D01*
X254129Y37772D02*
Y40396D01*
X253473Y41052D01*
X252162D01*
X251505Y40396D01*
Y37772D01*
X252162Y37116D01*
X253473D01*
X252817Y38428D02*
X254129Y37116D01*
X253473D02*
X254129Y37772D01*
X258065Y41052D02*
X256753Y40396D01*
X255441Y39084D01*
Y37772D01*
X256097Y37116D01*
X257409D01*
X258065Y37772D01*
Y38428D01*
X257409Y39084D01*
X255441D01*
X328699Y38725D02*
Y41349D01*
X328043Y42005D01*
X326731D01*
X326075Y41349D01*
Y38725D01*
X326731Y38069D01*
X328043D01*
X327387Y39381D02*
X328699Y38069D01*
X328043D02*
X328699Y38725D01*
X330011Y41349D02*
X330666Y42005D01*
X331978D01*
X332634Y41349D01*
Y40693D01*
X331978Y40037D01*
X332634Y39381D01*
Y38725D01*
X331978Y38069D01*
X330666D01*
X330011Y38725D01*
Y39381D01*
X330666Y40037D01*
X330011Y40693D01*
Y41349D01*
X330666Y40037D02*
X331978D01*
X101630Y38648D02*
Y41272D01*
X100974Y41928D01*
X99662D01*
X99006Y41272D01*
Y38648D01*
X99662Y37992D01*
X100974D01*
X100318Y39304D02*
X101630Y37992D01*
X100974D02*
X101630Y38648D01*
X105566Y37992D02*
X102942D01*
X105566Y40616D01*
Y41272D01*
X104910Y41928D01*
X103598D01*
X102942Y41272D01*
X176621Y38108D02*
Y40732D01*
X175965Y41388D01*
X174653D01*
X173997Y40732D01*
Y38108D01*
X174653Y37452D01*
X175965D01*
X175309Y38764D02*
X176621Y37452D01*
X175965D02*
X176621Y38108D01*
X179901Y37452D02*
Y41388D01*
X177933Y39420D01*
X180556D01*
X87770Y23621D02*
X86458D01*
X87114D01*
Y20342D01*
X86458Y19686D01*
X85802D01*
X85146Y20342D01*
X89082Y19686D02*
Y23621D01*
X91050D01*
X91706Y22965D01*
Y21654D01*
X91050Y20998D01*
X89082D01*
X93018Y19686D02*
X94330D01*
X93674D01*
Y23621D01*
X93018Y22965D01*
X160736Y23720D02*
X159424D01*
X160080D01*
Y20440D01*
X159424Y19784D01*
X158768D01*
X158112Y20440D01*
X162048Y19784D02*
Y23720D01*
X164016D01*
X164672Y23064D01*
Y21752D01*
X164016Y21096D01*
X162048D01*
X168607Y19784D02*
X165984D01*
X168607Y22408D01*
Y23064D01*
X167952Y23720D01*
X166640D01*
X165984Y23064D01*
X240618Y23720D02*
X239306D01*
X239962D01*
Y20440D01*
X239306Y19784D01*
X238650D01*
X237994Y20440D01*
X241930Y19784D02*
Y23720D01*
X243898D01*
X244554Y23064D01*
Y21752D01*
X243898Y21096D01*
X241930D01*
X245866Y23064D02*
X246521Y23720D01*
X247833D01*
X248489Y23064D01*
Y22408D01*
X247833Y21752D01*
X247178D01*
X247833D01*
X248489Y21096D01*
Y20440D01*
X247833Y19784D01*
X246521D01*
X245866Y20440D01*
X315264Y23720D02*
X313952D01*
X314608D01*
Y20440D01*
X313952Y19784D01*
X313296D01*
X312640Y20440D01*
X316576Y19784D02*
Y23720D01*
X318543D01*
X319199Y23064D01*
Y21752D01*
X318543Y21096D01*
X316576D01*
X322479Y19784D02*
Y23720D01*
X320511Y21752D01*
X323135D01*
X424115Y25326D02*
X428051D01*
Y23359D01*
X427395Y22703D01*
X426083D01*
X425427Y23359D01*
Y25326D01*
Y24014D02*
X424115Y22703D01*
Y18767D02*
Y21391D01*
X426739Y18767D01*
X427395D01*
X428051Y19423D01*
Y20735D01*
X427395Y21391D01*
X428051Y14831D02*
X427395Y16143D01*
X426083Y17455D01*
X424771D01*
X424115Y16799D01*
Y15487D01*
X424771Y14831D01*
X425427D01*
X426083Y15487D01*
Y17455D01*
X411516Y25425D02*
X415452D01*
Y23457D01*
X414796Y22801D01*
X413484D01*
X412828Y23457D01*
Y25425D01*
Y24113D02*
X411516Y22801D01*
Y18865D02*
Y21489D01*
X414140Y18865D01*
X414796D01*
X415452Y19521D01*
Y20833D01*
X414796Y21489D01*
X415452Y14930D02*
Y17553D01*
X413484D01*
X414140Y16241D01*
Y15586D01*
X413484Y14930D01*
X412172D01*
X411516Y15586D01*
Y16897D01*
X412172Y17553D01*
X455034Y115889D02*
Y119824D01*
X456346Y118512D01*
X457658Y119824D01*
Y115889D01*
X458970Y119168D02*
X459626Y119824D01*
X460938D01*
X461594Y119168D01*
Y118512D01*
X460938Y117856D01*
X460282D01*
X460938D01*
X461594Y117201D01*
Y116544D01*
X460938Y115889D01*
X459626D01*
X458970Y116544D01*
X101574Y221392D02*
X97638D01*
X98950Y222704D01*
X97638Y224016D01*
X101574D01*
Y225328D02*
Y226640D01*
Y225984D01*
X97638D01*
X98294Y225328D01*
X401698Y268567D02*
Y265287D01*
X402354Y264632D01*
X403665D01*
X404321Y265287D01*
Y268567D01*
X405633Y264632D02*
X406945D01*
X406289D01*
Y268567D01*
X405633Y267911D01*
X410881Y264632D02*
Y268567D01*
X408913Y266599D01*
X411537D01*
X62509Y262162D02*
Y258882D01*
X63165Y258226D01*
X64477D01*
X65132Y258882D01*
Y262162D01*
X66444Y258226D02*
X67756D01*
X67100D01*
Y262162D01*
X66444Y261506D01*
X69724D02*
X70380Y262162D01*
X71692D01*
X72348Y261506D01*
Y260850D01*
X71692Y260194D01*
X71036D01*
X71692D01*
X72348Y259538D01*
Y258882D01*
X71692Y258226D01*
X70380D01*
X69724Y258882D01*
X109740Y264067D02*
Y260788D01*
X110396Y260132D01*
X111708D01*
X112364Y260788D01*
Y264067D01*
X113676Y260132D02*
X114988D01*
X114332D01*
Y264067D01*
X113676Y263411D01*
X119580Y260132D02*
X116956D01*
X119580Y262755D01*
Y263411D01*
X118924Y264067D01*
X117612D01*
X116956Y263411D01*
X190483Y264130D02*
Y260851D01*
X191139Y260194D01*
X192451D01*
X193106Y260851D01*
Y264130D01*
X194418Y260194D02*
X195730D01*
X195074D01*
Y264130D01*
X194418Y263474D01*
X197698Y260194D02*
X199010D01*
X198354D01*
Y264130D01*
X197698Y263474D01*
X226146Y263867D02*
Y260588D01*
X226802Y259931D01*
X228114D01*
X228769Y260588D01*
Y263867D01*
X230081Y259931D02*
X231393D01*
X230737D01*
Y263867D01*
X230081Y263211D01*
X233361D02*
X234017Y263867D01*
X235329D01*
X235985Y263211D01*
Y260588D01*
X235329Y259931D01*
X234017D01*
X233361Y260588D01*
Y263211D01*
X251793Y265454D02*
Y262175D01*
X252449Y261519D01*
X253760D01*
X254416Y262175D01*
Y265454D01*
X255728Y262175D02*
X256384Y261519D01*
X257696D01*
X258352Y262175D01*
Y264798D01*
X257696Y265454D01*
X256384D01*
X255728Y264798D01*
Y264142D01*
X256384Y263486D01*
X258352D01*
X315072Y268499D02*
Y265219D01*
X315728Y264563D01*
X317039D01*
X317695Y265219D01*
Y268499D01*
X319007Y267843D02*
X319663Y268499D01*
X320975D01*
X321631Y267843D01*
Y267187D01*
X320975Y266531D01*
X321631Y265875D01*
Y265219D01*
X320975Y264563D01*
X319663D01*
X319007Y265219D01*
Y265875D01*
X319663Y266531D01*
X319007Y267187D01*
Y267843D01*
X319663Y266531D02*
X320975D01*
X303414Y190944D02*
X306038D01*
X304726D01*
Y187009D01*
X307349D02*
Y190944D01*
X309317D01*
X309973Y190288D01*
Y188976D01*
X309317Y188320D01*
X307349D01*
X311285Y190288D02*
X311941Y190944D01*
X313253D01*
X313909Y190288D01*
Y189632D01*
X313253Y188976D01*
X312597D01*
X313253D01*
X313909Y188320D01*
Y187664D01*
X313253Y187009D01*
X311941D01*
X311285Y187664D01*
X230579Y191338D02*
X233203D01*
X231891D01*
Y187402D01*
X234515D02*
Y191338D01*
X236483D01*
X237139Y190682D01*
Y189370D01*
X236483Y188714D01*
X234515D01*
X241074Y187402D02*
X238451D01*
X241074Y190026D01*
Y190682D01*
X240419Y191338D01*
X239107D01*
X238451Y190682D01*
X155645Y191338D02*
X158268D01*
X156956D01*
Y187402D01*
X159580D02*
Y191338D01*
X161548D01*
X162204Y190682D01*
Y189370D01*
X161548Y188714D01*
X159580D01*
X163516Y187402D02*
X164828D01*
X164172D01*
Y191338D01*
X163516Y190682D01*
X151574Y234910D02*
X147638D01*
Y236878D01*
X148294Y237534D01*
X149606D01*
X150262Y236878D01*
Y234910D01*
Y236222D02*
X151574Y237534D01*
Y241469D02*
Y238846D01*
X148950Y241469D01*
X148294D01*
X147638Y240813D01*
Y239502D01*
X148294Y238846D01*
X151574Y244749D02*
X147638D01*
X149606Y242781D01*
Y245405D01*
X135826Y234910D02*
X131890D01*
Y236878D01*
X132546Y237534D01*
X133858D01*
X134514Y236878D01*
Y234910D01*
Y236222D02*
X135826Y237534D01*
Y241469D02*
Y238846D01*
X133202Y241469D01*
X132546D01*
X131890Y240813D01*
Y239502D01*
X132546Y238846D01*
Y242781D02*
X131890Y243437D01*
Y244749D01*
X132546Y245405D01*
X133202D01*
X133858Y244749D01*
Y244093D01*
Y244749D01*
X134514Y245405D01*
X135170D01*
X135826Y244749D01*
Y243437D01*
X135170Y242781D01*
X88582Y252626D02*
X84646D01*
Y254594D01*
X85302Y255250D01*
X86614D01*
X87270Y254594D01*
Y252626D01*
Y253938D02*
X88582Y255250D01*
Y259186D02*
Y256562D01*
X85958Y259186D01*
X85302D01*
X84646Y258530D01*
Y257218D01*
X85302Y256562D01*
X88582Y263122D02*
Y260498D01*
X85958Y263122D01*
X85302D01*
X84646Y262466D01*
Y261154D01*
X85302Y260498D01*
X100393Y253282D02*
X96457D01*
Y255250D01*
X97113Y255906D01*
X98425D01*
X99081Y255250D01*
Y253282D01*
Y254594D02*
X100393Y255906D01*
Y259842D02*
Y257218D01*
X97769Y259842D01*
X97113D01*
X96457Y259186D01*
Y257874D01*
X97113Y257218D01*
X100393Y261154D02*
Y262466D01*
Y261810D01*
X96457D01*
X97113Y261154D01*
X352361Y234910D02*
X348426D01*
Y236878D01*
X349082Y237534D01*
X350394D01*
X351050Y236878D01*
Y234910D01*
Y236222D02*
X352361Y237534D01*
Y241469D02*
Y238846D01*
X349738Y241469D01*
X349082D01*
X348426Y240813D01*
Y239502D01*
X349082Y238846D01*
Y242781D02*
X348426Y243437D01*
Y244749D01*
X349082Y245405D01*
X351706D01*
X352361Y244749D01*
Y243437D01*
X351706Y242781D01*
X349082D01*
X340550Y235238D02*
X336615D01*
Y237206D01*
X337271Y237862D01*
X338583D01*
X339239Y237206D01*
Y235238D01*
Y236550D02*
X340550Y237862D01*
Y239174D02*
Y240486D01*
Y239829D01*
X336615D01*
X337271Y239174D01*
X339895Y242453D02*
X340550Y243109D01*
Y244421D01*
X339895Y245077D01*
X337271D01*
X336615Y244421D01*
Y243109D01*
X337271Y242453D01*
X337927D01*
X338583Y243109D01*
Y245077D01*
X303149Y257777D02*
X299213D01*
Y259745D01*
X299869Y260401D01*
X301181D01*
X301837Y259745D01*
Y257777D01*
Y259089D02*
X303149Y260401D01*
Y261713D02*
Y263025D01*
Y262369D01*
X299213D01*
X299869Y261713D01*
Y264993D02*
X299213Y265649D01*
Y266961D01*
X299869Y267617D01*
X300525D01*
X301181Y266961D01*
X301837Y267617D01*
X302493D01*
X303149Y266961D01*
Y265649D01*
X302493Y264993D01*
X301837D01*
X301181Y265649D01*
X300525Y264993D01*
X299869D01*
X301181Y265649D02*
Y266961D01*
X291338Y256891D02*
X287402D01*
Y258859D01*
X288058Y259515D01*
X289370D01*
X290026Y258859D01*
Y256891D01*
Y258203D02*
X291338Y259515D01*
Y260827D02*
Y262139D01*
Y261483D01*
X287402D01*
X288058Y260827D01*
X287402Y264107D02*
Y266731D01*
X288058D01*
X290682Y264107D01*
X291338D01*
X285435Y242127D02*
Y246062D01*
X287403D01*
X288058Y245406D01*
Y244094D01*
X287403Y243439D01*
X285435D01*
X286747D02*
X288058Y242127D01*
X289370D02*
X290682D01*
X290026D01*
Y246062D01*
X289370Y245406D01*
X295274Y246062D02*
X293962Y245406D01*
X292650Y244094D01*
Y242783D01*
X293306Y242127D01*
X294618D01*
X295274Y242783D01*
Y243439D01*
X294618Y244094D01*
X292650D01*
X438976Y235238D02*
X435040D01*
Y237206D01*
X435696Y237862D01*
X437008D01*
X437664Y237206D01*
Y235238D01*
Y236550D02*
X438976Y237862D01*
Y239174D02*
Y240486D01*
Y239829D01*
X435040D01*
X435696Y239174D01*
X435040Y245077D02*
Y242453D01*
X437008D01*
X436352Y243765D01*
Y244421D01*
X437008Y245077D01*
X438320D01*
X438976Y244421D01*
Y243109D01*
X438320Y242453D01*
X427165Y235238D02*
X423229D01*
Y237206D01*
X423885Y237862D01*
X425197D01*
X425853Y237206D01*
Y235238D01*
Y236550D02*
X427165Y237862D01*
Y239174D02*
Y240486D01*
Y239829D01*
X423229D01*
X423885Y239174D01*
X427165Y244421D02*
X423229D01*
X425197Y242453D01*
Y245077D01*
X391732Y258860D02*
X387796D01*
Y260828D01*
X388452Y261484D01*
X389764D01*
X390420Y260828D01*
Y258860D01*
Y260172D02*
X391732Y261484D01*
Y262796D02*
Y264107D01*
Y263452D01*
X387796D01*
X388452Y262796D01*
Y266075D02*
X387796Y266731D01*
Y268043D01*
X388452Y268699D01*
X389108D01*
X389764Y268043D01*
Y267387D01*
Y268043D01*
X390420Y268699D01*
X391076D01*
X391732Y268043D01*
Y266731D01*
X391076Y266075D01*
X379921Y258860D02*
X375985D01*
Y260828D01*
X376641Y261484D01*
X377953D01*
X378609Y260828D01*
Y258860D01*
Y260172D02*
X379921Y261484D01*
Y262796D02*
Y264107D01*
Y263452D01*
X375985D01*
X376641Y262796D01*
X379921Y268699D02*
Y266075D01*
X377297Y268699D01*
X376641D01*
X375985Y268043D01*
Y266731D01*
X376641Y266075D01*
X375658Y244095D02*
Y248031D01*
X377625D01*
X378281Y247375D01*
Y246063D01*
X377625Y245407D01*
X375658D01*
X376970D02*
X378281Y244095D01*
X379593D02*
X380905D01*
X380249D01*
Y248031D01*
X379593Y247375D01*
X382873Y244095D02*
X384185D01*
X383529D01*
Y248031D01*
X382873Y247375D01*
X308932Y28512D02*
Y32448D01*
X310900D01*
X311556Y31792D01*
Y30480D01*
X310900Y29824D01*
X308932D01*
X310244D02*
X311556Y28512D01*
X312868D02*
X314180D01*
X313524D01*
Y32448D01*
X312868Y31792D01*
X316148D02*
X316804Y32448D01*
X318116D01*
X318772Y31792D01*
Y29168D01*
X318116Y28512D01*
X316804D01*
X316148Y29168D01*
Y31792D01*
X361712Y54890D02*
X357776D01*
Y56857D01*
X358432Y57513D01*
X359744D01*
X360400Y56857D01*
Y54890D01*
Y56201D02*
X361712Y57513D01*
X361056Y58825D02*
X361712Y59481D01*
Y60793D01*
X361056Y61449D01*
X358432D01*
X357776Y60793D01*
Y59481D01*
X358432Y58825D01*
X359088D01*
X359744Y59481D01*
Y61449D01*
X238131Y28824D02*
Y32759D01*
X240099D01*
X240755Y32103D01*
Y30791D01*
X240099Y30135D01*
X238131D01*
X239443D02*
X240755Y28824D01*
X242067Y32103D02*
X242723Y32759D01*
X244035D01*
X244691Y32103D01*
Y31447D01*
X244035Y30791D01*
X244691Y30135D01*
Y29479D01*
X244035Y28824D01*
X242723D01*
X242067Y29479D01*
Y30135D01*
X242723Y30791D01*
X242067Y31447D01*
Y32103D01*
X242723Y30791D02*
X244035D01*
X289369Y47901D02*
X285434D01*
Y49869D01*
X286090Y50525D01*
X287402D01*
X288057Y49869D01*
Y47901D01*
Y49213D02*
X289369Y50525D01*
X285434Y51837D02*
Y54461D01*
X286090D01*
X288714Y51837D01*
X289369D01*
X297243Y47901D02*
X293308D01*
Y49869D01*
X293964Y50525D01*
X295276D01*
X295932Y49869D01*
Y47901D01*
Y49213D02*
X297243Y50525D01*
X293308Y54461D02*
X293964Y53149D01*
X295276Y51837D01*
X296587D01*
X297243Y52493D01*
Y53805D01*
X296587Y54461D01*
X295932D01*
X295276Y53805D01*
Y51837D01*
X158308Y28824D02*
Y32759D01*
X160276D01*
X160932Y32103D01*
Y30791D01*
X160276Y30135D01*
X158308D01*
X159620D02*
X160932Y28824D01*
X164868Y32759D02*
X162244D01*
Y30791D01*
X163556Y31447D01*
X164212D01*
X164868Y30791D01*
Y29479D01*
X164212Y28824D01*
X162900D01*
X162244Y29479D01*
X208169Y54890D02*
X204233D01*
Y56857D01*
X204889Y57513D01*
X206201D01*
X206857Y56857D01*
Y54890D01*
Y56201D02*
X208169Y57513D01*
Y60793D02*
X204233D01*
X206201Y58825D01*
Y61449D01*
X83702Y28824D02*
Y32759D01*
X85670D01*
X86326Y32103D01*
Y30791D01*
X85670Y30135D01*
X83702D01*
X85014D02*
X86326Y28824D01*
X87638Y32103D02*
X88294Y32759D01*
X89606D01*
X90262Y32103D01*
Y31447D01*
X89606Y30791D01*
X88950D01*
X89606D01*
X90262Y30135D01*
Y29479D01*
X89606Y28824D01*
X88294D01*
X87638Y29479D01*
X132873Y55775D02*
X128938D01*
Y57743D01*
X129594Y58399D01*
X130905D01*
X131562Y57743D01*
Y55775D01*
Y57087D02*
X132873Y58399D01*
Y62335D02*
Y59711D01*
X130250Y62335D01*
X129594D01*
X128938Y61679D01*
Y60367D01*
X129594Y59711D01*
X63321Y128938D02*
Y132873D01*
X65289D01*
X65945Y132217D01*
Y130905D01*
X65289Y130250D01*
X63321D01*
X64633D02*
X65945Y128938D01*
X67257D02*
X68569D01*
X67913D01*
Y132873D01*
X67257Y132217D01*
X157843Y262925D02*
Y265548D01*
X157188Y266204D01*
X155876D01*
X155220Y265548D01*
Y262925D01*
X155876Y262268D01*
X157188D01*
X156532Y263580D02*
X157843Y262268D01*
X157188D02*
X157843Y262925D01*
X159155D02*
X159811Y262268D01*
X161123D01*
X161779Y262925D01*
Y265548D01*
X161123Y266204D01*
X159811D01*
X159155Y265548D01*
Y264892D01*
X159811Y264236D01*
X161779D01*
X356135Y40387D02*
X353511D01*
X352855Y39731D01*
Y38419D01*
X353511Y37764D01*
X356135D01*
X356791Y38419D01*
Y39731D01*
X355479Y39075D02*
X356791Y40387D01*
Y39731D02*
X356135Y40387D01*
X352855Y41699D02*
Y44323D01*
X353511D01*
X356135Y41699D01*
X356791D01*
X280938Y40191D02*
X278314D01*
X277658Y39535D01*
Y38223D01*
X278314Y37567D01*
X280938D01*
X281594Y38223D01*
Y39535D01*
X280282Y38879D02*
X281594Y40191D01*
Y39535D02*
X280938Y40191D01*
X277658Y44126D02*
Y41502D01*
X279626D01*
X278970Y42814D01*
Y43470D01*
X279626Y44126D01*
X280938D01*
X281594Y43470D01*
Y42158D01*
X280938Y41502D01*
X202591Y39797D02*
X199968D01*
X199312Y39141D01*
Y37829D01*
X199968Y37173D01*
X202591D01*
X203247Y37829D01*
Y39141D01*
X201936Y38485D02*
X203247Y39797D01*
Y39141D02*
X202591Y39797D01*
X199968Y41109D02*
X199312Y41765D01*
Y43077D01*
X199968Y43733D01*
X200624D01*
X201279Y43077D01*
Y42421D01*
Y43077D01*
X201936Y43733D01*
X202591D01*
X203247Y43077D01*
Y41765D01*
X202591Y41109D01*
X128280Y41732D02*
X125657D01*
X125001Y41076D01*
Y39764D01*
X125657Y39108D01*
X128280D01*
X128936Y39764D01*
Y41076D01*
X127624Y40420D02*
X128936Y41732D01*
Y41076D02*
X128280Y41732D01*
X128936Y43044D02*
Y44356D01*
Y43700D01*
X125001D01*
X125657Y43044D01*
X20342Y128150D02*
Y132086D01*
X21654Y130774D01*
X22966Y132086D01*
Y128150D01*
X26902Y132086D02*
X24278D01*
Y130118D01*
X25590Y130774D01*
X26246D01*
X26902Y130118D01*
Y128806D01*
X26246Y128150D01*
X24934D01*
X24278Y128806D01*
X20342Y207875D02*
Y211810D01*
X21654Y210498D01*
X22966Y211810D01*
Y207875D01*
X26246D02*
Y211810D01*
X24278Y209842D01*
X26902D01*
X455086Y194667D02*
Y198603D01*
X456398Y197291D01*
X457710Y198603D01*
Y194667D01*
X461646D02*
X459022D01*
X461646Y197291D01*
Y197947D01*
X460990Y198603D01*
X459678D01*
X459022Y197947D01*
X318508Y179000D02*
Y175064D01*
Y176376D01*
X321132Y179000D01*
X319164Y177032D01*
X321132Y175064D01*
X324412D02*
Y179000D01*
X322444Y177032D01*
X325068D01*
X244689Y179000D02*
Y175064D01*
Y176376D01*
X247313Y179000D01*
X245345Y177032D01*
X247313Y175064D01*
X248625Y178344D02*
X249281Y179000D01*
X250593D01*
X251249Y178344D01*
Y177688D01*
X250593Y177032D01*
X249937D01*
X250593D01*
X251249Y176376D01*
Y175720D01*
X250593Y175064D01*
X249281D01*
X248625Y175720D01*
X169886Y179000D02*
Y175064D01*
Y176376D01*
X172510Y179000D01*
X170542Y177032D01*
X172510Y175064D01*
X176446D02*
X173822D01*
X176446Y177688D01*
Y178344D01*
X175790Y179000D01*
X174478D01*
X173822Y178344D01*
X96067Y179000D02*
Y175064D01*
Y176376D01*
X98691Y179000D01*
X96723Y177032D01*
X98691Y175064D01*
X100003D02*
X101315D01*
X100659D01*
Y179000D01*
X100003Y178344D01*
X347370Y32594D02*
Y28658D01*
X349338D01*
X349994Y29314D01*
Y31938D01*
X349338Y32594D01*
X347370D01*
X351306Y29314D02*
X351961Y28658D01*
X353273D01*
X353929Y29314D01*
Y31938D01*
X353273Y32594D01*
X351961D01*
X351306Y31938D01*
Y31282D01*
X351961Y30626D01*
X353929D01*
X317094Y67027D02*
Y63091D01*
X319062D01*
X319718Y63747D01*
Y66371D01*
X319062Y67027D01*
X317094D01*
X321030Y66371D02*
X321686Y67027D01*
X322998D01*
X323654Y66371D01*
Y65715D01*
X322998Y65059D01*
X323654Y64403D01*
Y63747D01*
X322998Y63091D01*
X321686D01*
X321030Y63747D01*
Y64403D01*
X321686Y65059D01*
X321030Y65715D01*
Y66371D01*
X321686Y65059D02*
X322998D01*
X273157Y32692D02*
Y28756D01*
X275125D01*
X275781Y29412D01*
Y32036D01*
X275125Y32692D01*
X273157D01*
X277093D02*
X279717D01*
Y32036D01*
X277093Y29412D01*
Y28756D01*
X241307Y68011D02*
Y64075D01*
X243275D01*
X243931Y64731D01*
Y67355D01*
X243275Y68011D01*
X241307D01*
X247866D02*
X246554Y67355D01*
X245243Y66043D01*
Y64731D01*
X245899Y64075D01*
X247210D01*
X247866Y64731D01*
Y65387D01*
X247210Y66043D01*
X245243D01*
X194220Y32791D02*
Y28855D01*
X196188D01*
X196844Y29511D01*
Y32135D01*
X196188Y32791D01*
X194220D01*
X200780D02*
X198156D01*
Y30823D01*
X199468Y31479D01*
X200124D01*
X200780Y30823D01*
Y29511D01*
X200124Y28855D01*
X198812D01*
X198156Y29511D01*
X163551Y68011D02*
Y64075D01*
X165519D01*
X166175Y64731D01*
Y67355D01*
X165519Y68011D01*
X163551D01*
X169455Y64075D02*
Y68011D01*
X167487Y66043D01*
X170110D01*
X126744Y28824D02*
Y32759D01*
X124776D01*
X124120Y32103D01*
Y29479D01*
X124776Y28824D01*
X126744D01*
X122809Y29479D02*
X122153Y28824D01*
X120841D01*
X120185Y29479D01*
Y30135D01*
X120841Y30791D01*
X121497D01*
X120841D01*
X120185Y31447D01*
Y32103D01*
X120841Y32759D01*
X122153D01*
X122809Y32103D01*
X89929Y67913D02*
Y63977D01*
X91897D01*
X92553Y64633D01*
Y67257D01*
X91897Y67913D01*
X89929D01*
X96488Y63977D02*
X93865D01*
X96488Y66601D01*
Y67257D01*
X95833Y67913D01*
X94521D01*
X93865Y67257D01*
X63321Y143897D02*
Y139961D01*
X65289D01*
X65945Y140617D01*
Y143241D01*
X65289Y143897D01*
X63321D01*
X67257Y139961D02*
X68569D01*
X67913D01*
Y143897D01*
X67257Y143241D01*
X140420Y237862D02*
X139764Y237206D01*
Y235894D01*
X140420Y235238D01*
X143044D01*
X143700Y235894D01*
Y237206D01*
X143044Y237862D01*
X143700Y239174D02*
Y240486D01*
Y239829D01*
X139764D01*
X140420Y239174D01*
X143700Y245077D02*
Y242453D01*
X141076Y245077D01*
X140420D01*
X139764Y244421D01*
Y243109D01*
X140420Y242453D01*
X49869Y248360D02*
X49213Y247704D01*
Y246392D01*
X49869Y245736D01*
X52493D01*
X53149Y246392D01*
Y247704D01*
X52493Y248360D01*
X53149Y249672D02*
Y250984D01*
Y250328D01*
X49213D01*
X49869Y249672D01*
X53149Y252952D02*
Y254264D01*
Y253608D01*
X49213D01*
X49869Y252952D01*
X213255Y249673D02*
X212599Y249017D01*
Y247705D01*
X213255Y247049D01*
X215879D01*
X216535Y247705D01*
Y249017D01*
X215879Y249673D01*
X216535Y250985D02*
Y252296D01*
Y251641D01*
X212599D01*
X213255Y250985D01*
Y254264D02*
X212599Y254920D01*
Y256232D01*
X213255Y256888D01*
X215879D01*
X216535Y256232D01*
Y254920D01*
X215879Y254264D01*
X213255D01*
X97113Y243439D02*
X96457Y242783D01*
Y241471D01*
X97113Y240815D01*
X99737D01*
X100393Y241471D01*
Y242783D01*
X99737Y243439D01*
Y244750D02*
X100393Y245406D01*
Y246718D01*
X99737Y247374D01*
X97113D01*
X96457Y246718D01*
Y245406D01*
X97113Y244750D01*
X97769D01*
X98425Y245406D01*
Y247374D01*
X177822Y251313D02*
X177166Y250657D01*
Y249345D01*
X177822Y248689D01*
X180446D01*
X181102Y249345D01*
Y250657D01*
X180446Y251313D01*
X177822Y252625D02*
X177166Y253280D01*
Y254592D01*
X177822Y255248D01*
X178478D01*
X179134Y254592D01*
X179790Y255248D01*
X180446D01*
X181102Y254592D01*
Y253280D01*
X180446Y252625D01*
X179790D01*
X179134Y253280D01*
X178478Y252625D01*
X177822D01*
X179134Y253280D02*
Y254592D01*
X278216Y251313D02*
X277560Y250657D01*
Y249345D01*
X278216Y248689D01*
X280839D01*
X281495Y249345D01*
Y250657D01*
X280839Y251313D01*
X277560Y252625D02*
Y255248D01*
X278216D01*
X280839Y252625D01*
X281495D01*
X359580Y259186D02*
X358924Y259842D01*
X357612D01*
X356956Y259186D01*
Y256562D01*
X357612Y255906D01*
X358924D01*
X359580Y256562D01*
X363516Y259842D02*
X362204Y259186D01*
X360892Y257874D01*
Y256562D01*
X361548Y255906D01*
X362860D01*
X363516Y256562D01*
Y257218D01*
X362860Y257874D01*
X360892D01*
X446194Y261154D02*
X445539Y261810D01*
X444227D01*
X443571Y261154D01*
Y258531D01*
X444227Y257875D01*
X445539D01*
X446194Y258531D01*
X450130Y261810D02*
X447506D01*
Y259842D01*
X448818Y260498D01*
X449474D01*
X450130Y259842D01*
Y258531D01*
X449474Y257875D01*
X448162D01*
X447506Y258531D01*
X359580Y251312D02*
X358924Y251968D01*
X357612D01*
X356956Y251312D01*
Y248688D01*
X357612Y248032D01*
X358924D01*
X359580Y248688D01*
X362860Y248032D02*
Y251968D01*
X360892Y250000D01*
X363516D01*
X291667Y253280D02*
X291011Y253936D01*
X289699D01*
X289043Y253280D01*
Y250657D01*
X289699Y250001D01*
X291011D01*
X291667Y250657D01*
X292979Y253280D02*
X293635Y253936D01*
X294947D01*
X295603Y253280D01*
Y252625D01*
X294947Y251969D01*
X294291D01*
X294947D01*
X295603Y251313D01*
Y250657D01*
X294947Y250001D01*
X293635D01*
X292979Y250657D01*
X446194Y253280D02*
X445539Y253936D01*
X444227D01*
X443571Y253280D01*
Y250657D01*
X444227Y250001D01*
X445539D01*
X446194Y250657D01*
X450130Y250001D02*
X447506D01*
X450130Y252625D01*
Y253280D01*
X449474Y253936D01*
X448162D01*
X447506Y253280D01*
X381890Y255249D02*
X381234Y255905D01*
X379922D01*
X379266Y255249D01*
Y252625D01*
X379922Y251969D01*
X381234D01*
X381890Y252625D01*
X383202Y251969D02*
X384514D01*
X383858D01*
Y255905D01*
X383202Y255249D01*
D12*
X413976Y256102D02*
G03*
X413976Y256102I-1181J0D01*
G01*
X327362D02*
G03*
X327362Y256102I-1181J0D01*
G01*
D13*
X1142Y204134D02*
X27913D01*
X1142Y134843D02*
Y204134D01*
Y134843D02*
X27913D01*
Y204134D01*
X454776Y191335D02*
X481548D01*
X454776Y122044D02*
Y191335D01*
Y122044D02*
X481548D01*
Y191335D01*
X318209Y72539D02*
X373327D01*
X318209D02*
Y171752D01*
X373327D01*
Y72539D02*
Y171752D01*
X244390Y72539D02*
X299508D01*
X244390D02*
Y171752D01*
X299508D01*
Y72539D02*
Y171752D01*
X169587Y72539D02*
X224705D01*
X169587D02*
Y171752D01*
X224705D01*
Y72539D02*
Y171752D01*
X95768Y72539D02*
X150886D01*
X95768D02*
Y171752D01*
X150886D01*
Y72539D02*
Y171752D01*
X454776Y31000D02*
Y112595D01*
Y31000D02*
X481548D01*
X454776Y112595D02*
X481548D01*
Y31000D02*
Y112595D01*
X394Y232283D02*
X382874D01*
Y217520D02*
Y232283D01*
Y217520D02*
X483268D01*
X31496Y44488D02*
X37402D01*
X31496Y105512D02*
X37402D01*
Y44488D02*
Y105512D01*
X414499Y61900D02*
X413499Y62900D01*
X411500D01*
X410500Y61900D01*
Y60901D01*
X411500Y59901D01*
X413499D01*
X414499Y58901D01*
Y57902D01*
X413499Y56902D01*
X411500D01*
X410500Y57902D01*
X416499Y62900D02*
Y56902D01*
X419498D01*
X420497Y57902D01*
Y61900D01*
X419498Y62900D01*
X416499D01*
X426495Y61900D02*
X425496Y62900D01*
X423496D01*
X422497Y61900D01*
Y57902D01*
X423496Y56902D01*
X425496D01*
X426495Y57902D01*
X437492Y62900D02*
X435492D01*
X434493Y61900D01*
Y57902D01*
X435492Y56902D01*
X437492D01*
X438491Y57902D01*
Y61900D01*
X437492Y62900D01*
X440491Y60901D02*
Y57902D01*
X441491Y56902D01*
X444489D01*
Y60901D01*
X447489Y61900D02*
Y60901D01*
X446489D01*
X448488D01*
X447489D01*
Y57902D01*
X448488Y56902D01*
X377969Y45307D02*
Y51305D01*
X380967D01*
X381967Y50305D01*
Y48306D01*
X380967Y47306D01*
X377969D01*
X379968D02*
X381967Y45307D01*
X387965Y51305D02*
X383967D01*
Y45307D01*
X387965D01*
X383967Y48306D02*
X385966D01*
X393963Y50305D02*
X392964Y51305D01*
X390964D01*
X389965Y50305D01*
Y49305D01*
X390964Y48306D01*
X392964D01*
X393963Y47306D01*
Y46306D01*
X392964Y45307D01*
X390964D01*
X389965Y46306D01*
X399961Y51305D02*
X395963D01*
Y45307D01*
X399961D01*
X395963Y48306D02*
X397962D01*
X401961Y51305D02*
X405960D01*
X403960D01*
Y45307D01*
X407959Y44307D02*
X411958D01*
X413957Y51305D02*
X417956D01*
X415956D01*
Y45307D01*
X422954Y51305D02*
X420955D01*
X419955Y50305D01*
Y46306D01*
X420955Y45307D01*
X422954D01*
X423954Y46306D01*
Y50305D01*
X422954Y51305D01*
X425953Y44307D02*
X429952D01*
X431951Y51305D02*
Y47306D01*
X433950Y45307D01*
X435950Y47306D01*
Y51305D01*
X441948Y50305D02*
X440948Y51305D01*
X438949D01*
X437949Y50305D01*
Y46306D01*
X438949Y45307D01*
X440948D01*
X441948Y46306D01*
X443947Y51305D02*
Y46306D01*
X444947Y45307D01*
X446946D01*
X447946Y46306D01*
Y51305D01*
X437334Y140050D02*
X436334Y141050D01*
X434335D01*
X433335Y140050D01*
Y136051D01*
X434335Y135052D01*
X436334D01*
X437334Y136051D01*
Y138051D01*
X435334D01*
X439333Y135052D02*
Y141050D01*
X443332Y135052D01*
Y141050D01*
X445331D02*
Y135052D01*
X448330D01*
X449330Y136051D01*
Y140050D01*
X448330Y141050D01*
X445331D01*
X410008Y86931D02*
Y80933D01*
X413007D01*
X414007Y81933D01*
Y82933D01*
X413007Y83932D01*
X410008D01*
X413007D01*
X414007Y84932D01*
Y85931D01*
X413007Y86931D01*
X410008D01*
X416006Y80933D02*
Y86931D01*
X418006Y84932D01*
X420005Y86931D01*
Y80933D01*
X426003Y85931D02*
X425003Y86931D01*
X423004D01*
X422005Y85931D01*
Y84932D01*
X423004Y83932D01*
X425003D01*
X426003Y82933D01*
Y81933D01*
X425003Y80933D01*
X423004D01*
X422005Y81933D01*
X428003Y79933D02*
X432001D01*
X437999Y86931D02*
X434001D01*
Y83932D01*
X436000D01*
X434001D01*
Y80933D01*
X439999Y86931D02*
Y80933D01*
X443997D01*
X445997Y86931D02*
X449995D01*
X447996D01*
Y80933D01*
X409811Y98209D02*
Y94210D01*
X411811Y92211D01*
X413810Y94210D01*
Y98209D01*
X419808Y97209D02*
X418809Y98209D01*
X416809D01*
X415810Y97209D01*
Y93210D01*
X416809Y92211D01*
X418809D01*
X419808Y93210D01*
X421808Y98209D02*
Y93210D01*
X422807Y92211D01*
X424807D01*
X425806Y93210D01*
Y98209D01*
X427806Y91211D02*
X431804D01*
X437803Y98209D02*
X433804D01*
Y95209D01*
X435803D01*
X433804D01*
Y92211D01*
X439802Y98209D02*
Y92211D01*
X443800D01*
X445800Y98209D02*
X449799D01*
X447799D01*
Y92211D01*
X392981Y165671D02*
Y159673D01*
X395980D01*
X396979Y160673D01*
Y161673D01*
X395980Y162672D01*
X392981D01*
X395980D01*
X396979Y163672D01*
Y164672D01*
X395980Y165671D01*
X392981D01*
X398979Y159673D02*
Y165671D01*
X401978D01*
X402978Y164672D01*
Y162672D01*
X401978Y161673D01*
X398979D01*
X400978D02*
X402978Y159673D01*
X404977D02*
Y163672D01*
X406976Y165671D01*
X408976Y163672D01*
Y159673D01*
Y162672D01*
X404977D01*
X410975Y165671D02*
Y159673D01*
Y161673D01*
X414974Y165671D01*
X411975Y162672D01*
X414974Y159673D01*
X420972Y165671D02*
X416973D01*
Y159673D01*
X420972D01*
X416973Y162672D02*
X418972D01*
X422971Y158674D02*
X426970D01*
X432968Y164672D02*
X431968Y165671D01*
X429969D01*
X428969Y164672D01*
Y163672D01*
X429969Y162672D01*
X431968D01*
X432968Y161673D01*
Y160673D01*
X431968Y159673D01*
X429969D01*
X428969Y160673D01*
X438966Y165671D02*
X434967D01*
Y159673D01*
X438966D01*
X434967Y162672D02*
X436967D01*
X440965Y159673D02*
Y165671D01*
X444964Y159673D01*
Y165671D01*
X450962Y164672D02*
X449962Y165671D01*
X447963D01*
X446963Y164672D01*
Y163672D01*
X447963Y162672D01*
X449962D01*
X450962Y161673D01*
Y160673D01*
X449962Y159673D01*
X447963D01*
X446963Y160673D01*
X386091Y152876D02*
Y146878D01*
X389090D01*
X390090Y147878D01*
Y148877D01*
X389090Y149877D01*
X386091D01*
X389090D01*
X390090Y150877D01*
Y151876D01*
X389090Y152876D01*
X386091D01*
X396088Y151876D02*
X395088Y152876D01*
X393089D01*
X392089Y151876D01*
Y150877D01*
X393089Y149877D01*
X395088D01*
X396088Y148877D01*
Y147878D01*
X395088Y146878D01*
X393089D01*
X392089Y147878D01*
X398087Y146878D02*
Y152876D01*
X401086D01*
X402086Y151876D01*
Y149877D01*
X401086Y148877D01*
X398087D01*
X404085Y152876D02*
Y146878D01*
X407084D01*
X408084Y147878D01*
Y151876D01*
X407084Y152876D01*
X404085D01*
X410083Y145878D02*
X414082D01*
X416081Y152876D02*
X420080D01*
X418081D01*
Y146878D01*
X425078Y152876D02*
X423079D01*
X422079Y151876D01*
Y147878D01*
X423079Y146878D01*
X425078D01*
X426078Y147878D01*
Y151876D01*
X425078Y152876D01*
X428078Y145878D02*
X432076D01*
X434075Y152876D02*
Y148877D01*
X436075Y146878D01*
X438074Y148877D01*
Y152876D01*
X444072Y151876D02*
X443073Y152876D01*
X441073D01*
X440074Y151876D01*
Y147878D01*
X441073Y146878D01*
X443073D01*
X444072Y147878D01*
X446072Y152876D02*
Y147878D01*
X447071Y146878D01*
X449071D01*
X450070Y147878D01*
Y152876D01*
X408790Y176483D02*
X407791Y177482D01*
X405792D01*
X404792Y176483D01*
Y172484D01*
X405792Y171484D01*
X407791D01*
X408790Y172484D01*
X410790Y171484D02*
Y177482D01*
X413789D01*
X414789Y176483D01*
Y174483D01*
X413789Y173484D01*
X410790D01*
X412789D02*
X414789Y171484D01*
X416788Y177482D02*
X420787D01*
X418787D01*
Y171484D01*
X422786Y170485D02*
X426785D01*
X432783Y176483D02*
X431783Y177482D01*
X429784D01*
X428784Y176483D01*
Y175483D01*
X429784Y174483D01*
X431783D01*
X432783Y173484D01*
Y172484D01*
X431783Y171484D01*
X429784D01*
X428784Y172484D01*
X438781Y177482D02*
X434782D01*
Y171484D01*
X438781D01*
X434782Y174483D02*
X436782D01*
X440780Y171484D02*
Y177482D01*
X444779Y171484D01*
Y177482D01*
X450777Y176483D02*
X449777Y177482D01*
X447778D01*
X446778Y176483D01*
Y175483D01*
X447778Y174483D01*
X449777D01*
X450777Y173484D01*
Y172484D01*
X449777Y171484D01*
X447778D01*
X446778Y172484D01*
X410500Y74711D02*
X412500D01*
X411500D01*
Y68713D01*
X410500D01*
X412500D01*
X415499D02*
Y74711D01*
X417498Y72712D01*
X419498Y74711D01*
Y68713D01*
X421497Y74711D02*
Y68713D01*
X424496D01*
X425496Y69713D01*
Y73711D01*
X424496Y74711D01*
X421497D01*
X437492D02*
X433493D01*
Y71712D01*
X435492D01*
X433493D01*
Y68713D01*
X439491Y74711D02*
Y68713D01*
X443490D01*
X445489Y74711D02*
X449488D01*
X447488D01*
Y68713D01*
X387811Y226486D02*
Y220488D01*
X390810D01*
X391810Y221488D01*
Y222487D01*
X390810Y223487D01*
X387811D01*
X390810D01*
X391810Y224487D01*
Y225487D01*
X390810Y226486D01*
X387811D01*
X397808Y225487D02*
X396808Y226486D01*
X394809D01*
X393809Y225487D01*
Y224487D01*
X394809Y223487D01*
X396808D01*
X397808Y222487D01*
Y221488D01*
X396808Y220488D01*
X394809D01*
X393809Y221488D01*
X399807Y220488D02*
Y226486D01*
X402806D01*
X403806Y225487D01*
Y223487D01*
X402806Y222487D01*
X399807D01*
X405805Y226486D02*
Y220488D01*
X408804D01*
X409804Y221488D01*
Y225487D01*
X408804Y226486D01*
X405805D01*
X391810Y213676D02*
X390810Y214675D01*
X388811D01*
X387811Y213676D01*
Y212676D01*
X388811Y211676D01*
X390810D01*
X391810Y210677D01*
Y209677D01*
X390810Y208677D01*
X388811D01*
X387811Y209677D01*
X393809Y214675D02*
Y208677D01*
Y211676D01*
X397808D01*
Y214675D01*
Y208677D01*
X399807Y214675D02*
Y209677D01*
X400807Y208677D01*
X402806D01*
X403806Y209677D01*
Y214675D01*
X405805D02*
X409804D01*
X407805D01*
Y208677D01*
X411803Y214675D02*
Y208677D01*
X414802D01*
X415802Y209677D01*
Y213676D01*
X414802Y214675D01*
X411803D01*
X420800D02*
X418801D01*
X417801Y213676D01*
Y209677D01*
X418801Y208677D01*
X420800D01*
X421800Y209677D01*
Y213676D01*
X420800Y214675D01*
X423799D02*
Y208677D01*
X425799Y210677D01*
X427798Y208677D01*
Y214675D01*
X429797Y208677D02*
Y214675D01*
X433796Y208677D01*
Y214675D01*
X445792Y213676D02*
X444793Y214675D01*
X442793D01*
X441794Y213676D01*
Y212676D01*
X442793Y211676D01*
X444793D01*
X445792Y210677D01*
Y209677D01*
X444793Y208677D01*
X442793D01*
X441794Y209677D01*
X447792Y214675D02*
Y213676D01*
X449791Y211676D01*
X451790Y213676D01*
Y214675D01*
X449791Y211676D02*
Y208677D01*
X457788Y213676D02*
X456789Y214675D01*
X454789D01*
X453790Y213676D01*
Y212676D01*
X454789Y211676D01*
X456789D01*
X457788Y210677D01*
Y209677D01*
X456789Y208677D01*
X454789D01*
X453790Y209677D01*
X459788Y214675D02*
X463786D01*
X461787D01*
Y208677D01*
X469784Y214675D02*
X465786D01*
Y208677D01*
X469784D01*
X465786Y211676D02*
X467785D01*
X471784Y208677D02*
Y214675D01*
X473783Y212676D01*
X475783Y214675D01*
Y208677D01*
X89277Y185314D02*
X88278Y184314D01*
Y182315D01*
X89277Y181315D01*
X93276D01*
X94276Y182315D01*
Y184314D01*
X93276Y185314D01*
X88278Y187313D02*
X94276D01*
X91277D01*
Y191312D01*
X88278D01*
X94276D01*
Y193311D02*
X90277D01*
X88278Y195310D01*
X90277Y197310D01*
X94276D01*
X91277D01*
Y193311D01*
X94276Y199309D02*
X88278D01*
Y202308D01*
X89277Y203308D01*
X91277D01*
X92276Y202308D01*
Y199309D01*
Y201308D02*
X94276Y203308D01*
X89277Y209306D02*
X88278Y208306D01*
Y206307D01*
X89277Y205307D01*
X93276D01*
X94276Y206307D01*
Y208306D01*
X93276Y209306D01*
X91277D01*
Y207307D01*
X88278Y211305D02*
Y213305D01*
Y212305D01*
X94276D01*
Y211305D01*
Y213305D01*
Y216304D02*
X88278D01*
X94276Y220302D01*
X88278D01*
X89277Y226300D02*
X88278Y225301D01*
Y223301D01*
X89277Y222302D01*
X93276D01*
X94276Y223301D01*
Y225301D01*
X93276Y226300D01*
X91277D01*
Y224301D01*
X36889Y153833D02*
X35889Y154833D01*
X33889D01*
X32890Y153833D01*
Y152833D01*
X33889Y151834D01*
X35889D01*
X36889Y150834D01*
Y149834D01*
X35889Y148835D01*
X33889D01*
X32890Y149834D01*
X42886Y154833D02*
X38888D01*
Y148835D01*
X42886D01*
X38888Y151834D02*
X40887D01*
X44886Y154833D02*
X48885D01*
X46885D01*
Y148835D01*
X50884D02*
X54883Y152833D01*
X56882Y148835D02*
Y154833D01*
X59881D01*
X60881Y153833D01*
Y151834D01*
X59881Y150834D01*
X56882D01*
X58881D02*
X60881Y148835D01*
X66879Y154833D02*
X62880D01*
Y148835D01*
X66879D01*
X62880Y151834D02*
X64879D01*
X72877Y153833D02*
X71877Y154833D01*
X69878D01*
X68878Y153833D01*
Y152833D01*
X69878Y151834D01*
X71877D01*
X72877Y150834D01*
Y149834D01*
X71877Y148835D01*
X69878D01*
X68878Y149834D01*
X78875Y154833D02*
X74876D01*
Y148835D01*
X78875D01*
X74876Y151834D02*
X76876D01*
X80874Y154833D02*
X84873D01*
X82874D01*
Y148835D01*
X37234Y166490D02*
X33235D01*
Y163491D01*
X35234Y164491D01*
X36234D01*
X37234Y163491D01*
Y161492D01*
X36234Y160492D01*
X34235D01*
X33235Y161492D01*
X39233Y166490D02*
Y162492D01*
X41232Y160492D01*
X43232Y162492D01*
Y166490D01*
X54228D02*
X52229D01*
X51229Y165491D01*
Y161492D01*
X52229Y160492D01*
X54228D01*
X55228Y161492D01*
Y165491D01*
X54228Y166490D01*
X57227Y164491D02*
Y161492D01*
X58227Y160492D01*
X61226D01*
Y164491D01*
X64225Y165491D02*
Y164491D01*
X63225D01*
X65225D01*
X64225D01*
Y161492D01*
X65225Y160492D01*
X37479Y178455D02*
X33480D01*
Y175456D01*
X35480Y176455D01*
X36479D01*
X37479Y175456D01*
Y173456D01*
X36479Y172457D01*
X34480D01*
X33480Y173456D01*
X39478Y178455D02*
Y174456D01*
X41478Y172457D01*
X43477Y174456D01*
Y178455D01*
X33480Y185252D02*
X35480D01*
X34480D01*
Y191250D01*
X33480Y190250D01*
X42477Y185252D02*
X38479D01*
X42477Y189251D01*
Y190250D01*
X41478Y191250D01*
X39478D01*
X38479Y190250D01*
X44477Y191250D02*
Y187251D01*
X46476Y185252D01*
X48476Y187251D01*
Y191250D01*
X46441Y59661D02*
X42442D01*
X40443Y61661D01*
X42442Y63660D01*
X46441D01*
X43442D01*
Y59661D01*
X40443Y65659D02*
Y67659D01*
Y66659D01*
X46441D01*
Y65659D01*
Y67659D01*
Y70658D02*
X40443D01*
Y73657D01*
X41443Y74657D01*
X43442D01*
X44442Y73657D01*
Y70658D01*
Y72657D02*
X46441Y74657D01*
X40443Y85653D02*
Y83654D01*
X41443Y82654D01*
X45441D01*
X46441Y83654D01*
Y85653D01*
X45441Y86653D01*
X41443D01*
X40443Y85653D01*
X42442Y88652D02*
X45441D01*
X46441Y89652D01*
Y92651D01*
X42442D01*
X41443Y95650D02*
X42442D01*
Y94650D01*
Y96649D01*
Y95650D01*
X45441D01*
X46441Y96649D01*
X36889Y116431D02*
X35889Y117431D01*
X33889D01*
X32890Y116431D01*
Y115432D01*
X33889Y114432D01*
X35889D01*
X36889Y113432D01*
Y112433D01*
X35889Y111433D01*
X33889D01*
X32890Y112433D01*
X38888Y117431D02*
Y111433D01*
X41887D01*
X42886Y112433D01*
Y116431D01*
X41887Y117431D01*
X38888D01*
X48885Y116431D02*
X47885Y117431D01*
X45886D01*
X44886Y116431D01*
Y112433D01*
X45886Y111433D01*
X47885D01*
X48885Y112433D01*
X56882Y117431D02*
X58881D01*
X57882D01*
Y111433D01*
X56882D01*
X58881D01*
X61880D02*
Y115432D01*
X64879D01*
X65879Y114432D01*
Y111433D01*
X93028Y10049D02*
Y4051D01*
X96027D01*
X97026Y5051D01*
Y6050D01*
X96027Y7050D01*
X93028D01*
X96027D01*
X97026Y8050D01*
Y9050D01*
X96027Y10049D01*
X93028D01*
X103024Y9050D02*
X102025Y10049D01*
X100025D01*
X99026Y9050D01*
Y8050D01*
X100025Y7050D01*
X102025D01*
X103024Y6050D01*
Y5051D01*
X102025Y4051D01*
X100025D01*
X99026Y5051D01*
X105024Y4051D02*
Y10049D01*
X108023D01*
X109022Y9050D01*
Y7050D01*
X108023Y6050D01*
X105024D01*
X111022Y10049D02*
Y4051D01*
X114021D01*
X115021Y5051D01*
Y9050D01*
X114021Y10049D01*
X111022D01*
X127017D02*
X123018D01*
Y7050D01*
X125017D01*
X123018D01*
Y4051D01*
X129016Y10049D02*
Y4051D01*
X133015D01*
X135014Y10049D02*
X139013D01*
X137013D01*
Y4051D01*
X251492Y10049D02*
X253491D01*
X252492D01*
Y4051D01*
X251492D01*
X253491D01*
X256490D02*
Y10049D01*
X258490Y8050D01*
X260489Y10049D01*
Y4051D01*
X262489Y10049D02*
Y4051D01*
X265488D01*
X266487Y5051D01*
Y9050D01*
X265488Y10049D01*
X262489D01*
X278483D02*
X274485D01*
Y7050D01*
X276484D01*
X274485D01*
Y4051D01*
X280483Y10049D02*
Y4051D01*
X284482D01*
X286481Y10049D02*
X290479D01*
X288480D01*
Y4051D01*
X327279Y10049D02*
Y4051D01*
X330279D01*
X331278Y5051D01*
Y6050D01*
X330279Y7050D01*
X327279D01*
X330279D01*
X331278Y8050D01*
Y9050D01*
X330279Y10049D01*
X327279D01*
X333278Y4051D02*
Y10049D01*
X335277Y8050D01*
X337276Y10049D01*
Y4051D01*
X343274Y9050D02*
X342275Y10049D01*
X340275D01*
X339276Y9050D01*
Y8050D01*
X340275Y7050D01*
X342275D01*
X343274Y6050D01*
Y5051D01*
X342275Y4051D01*
X340275D01*
X339276Y5051D01*
X355271Y10049D02*
X351272D01*
Y7050D01*
X353271D01*
X351272D01*
Y4051D01*
X357270Y10049D02*
Y4051D01*
X361268D01*
X363268Y10049D02*
X367267D01*
X365267D01*
Y4051D01*
X172752Y10049D02*
Y6050D01*
X174751Y4051D01*
X176751Y6050D01*
Y10049D01*
X182749Y9050D02*
X181749Y10049D01*
X179750D01*
X178750Y9050D01*
Y5051D01*
X179750Y4051D01*
X181749D01*
X182749Y5051D01*
X184748Y10049D02*
Y5051D01*
X185748Y4051D01*
X187747D01*
X188747Y5051D01*
Y10049D01*
X200743D02*
X196744D01*
Y7050D01*
X198744D01*
X196744D01*
Y4051D01*
X202742Y10049D02*
Y4051D01*
X206741D01*
X208740Y10049D02*
X212739D01*
X210740D01*
Y4051D01*
D14*
X345020Y29315D02*
Y32268D01*
X270217Y29315D02*
Y32268D01*
X191476Y29315D02*
Y32268D01*
X116870Y29315D02*
Y32268D01*
X73130Y139469D02*
Y142421D01*
M02*
