M48
;Layer_Color=9474304
;FILE_FORMAT=2:5
INCH,LZ
;TYPE=PLATED
T1F00S00C0.01575
T2F00S00C0.02756
T3F00S00C0.03000
T4F00S00C0.03937
T5F00S00C0.04173
T6F00S00C0.04370
T7F00S00C0.04528
T8F00S00C0.05197
T9F00S00C0.07283
T10F00S00C0.12008
T11F00S00C0.15748
%
T01
X0143701Y0041339
X0218504
X0297244
X0372047
X0396654Y0020669
X0422146Y0047244
X0384842Y0060039
X0300197Y0062008
X0307087Y0082677
X0232283
X0159449Y0080709
X0083661Y0112205
X0062008Y0219701
X0068898Y0241142
X007874Y025
X0238189Y0259842
X0249016Y0261811
X0247047Y0254921
X0311811Y0242126
X0330315Y0241339
X041437Y0269685
X0419291Y0264764
T02
X0102961Y0046746
X0142724Y0048215
X0177764Y004635
X0217527Y0046246
X0256799Y0046449
X0300204Y0047231
X0331496Y0050886
X0392717Y0035433
X0419496Y0009736
X0452027Y0189156
X0395669Y011811
X0375299Y005875
X022441Y0061024
X0150591Y0059055
X0088583Y0140748
X005315Y0134843
X0045472Y0122343
X005315Y0200787
X0057087Y0240158
X0112205Y0244587
X0177165Y0245079
X0173228Y0254921
X0203689Y0259887
X0208268Y0248031
X0214567Y0244094
X0259842
X0278346
X0273622Y0260221
X0296457Y0248031
X0313779Y0246457
X0333465Y0234252
X0345472Y0267717
X0372047
X0366929Y0249213
X0393307Y0239764
X0419291Y0237205
X0432087Y0265748
T03
X0257382Y0081791
X028691
X0331201Y0081791
X0360728
X0212106
X0182579
X0138287
X010876
T04
X0257382Y0140847
Y0160531
X028691
Y0140847
X0331201Y0140847
Y0160531
X0360728
Y0140847
X0212106
Y0160531
X0182579
Y0140847
X0138287
Y0160531
X010876
Y0140847
T05
X0467414Y0048422
Y0060233
Y0072044
Y0083855
Y0095666
X0467414Y0138973
Y0150784
Y0162595
Y0174406
X001378Y0175394
Y0187205
Y0163583
Y0151772
T06
X0025591Y0044842
Y0054843
Y0064842
Y0074843
Y0084842
Y0094842
Y0104842
Y0114842
T07
X0103517Y0021654
X0113517
X0178124Y0021752
X0188124
X0256864
X0266864
X0331667
X0341667
T08
X0459697Y0036611
Y0107477
X0459697Y0127162
Y0186217
X0006063Y0199016
Y0139961
T09
X0133071Y0190945
Y0213386
T10
X0138347Y0202165
T11
X0015748Y0015748
X046752
X0015748Y0259842
X046752
M30
