G04*
G04 #@! TF.GenerationSoftware,Altium Limited,Altium Designer,18.1.11 (251)*
G04*
G04 Layer_Color=16711935*
%FSLAX25Y25*%
%MOIN*%
G70*
G01*
G75*
%ADD45C,0.07493*%
%ADD46C,0.10642*%
%ADD47C,0.12808*%
%ADD48C,0.07099*%
%ADD49C,0.05131*%
%ADD50C,0.24422*%
%ADD51C,0.07887*%
D45*
X103517Y21654D02*
D03*
X113517D02*
D03*
X178124Y21752D02*
D03*
X188124D02*
D03*
X256864D02*
D03*
X266864D02*
D03*
X331667D02*
D03*
X341667D02*
D03*
X25591Y114842D02*
D03*
Y104842D02*
D03*
Y94842D02*
D03*
Y84842D02*
D03*
Y74843D02*
D03*
Y64842D02*
D03*
Y54843D02*
D03*
Y44842D02*
D03*
D46*
X133071Y213386D02*
D03*
Y190945D02*
D03*
D47*
X138347Y202165D02*
D03*
D48*
X13780Y187205D02*
D03*
Y175394D02*
D03*
Y163583D02*
D03*
Y151772D02*
D03*
X467414Y174406D02*
D03*
Y162595D02*
D03*
Y150784D02*
D03*
Y138973D02*
D03*
X331201Y140847D02*
D03*
Y160531D02*
D03*
X360728D02*
D03*
Y140847D02*
D03*
X257382Y140847D02*
D03*
Y160531D02*
D03*
X286910D02*
D03*
Y140847D02*
D03*
X182579Y140847D02*
D03*
Y160531D02*
D03*
X212106D02*
D03*
Y140847D02*
D03*
X108760D02*
D03*
Y160531D02*
D03*
X138287D02*
D03*
Y140847D02*
D03*
X467414Y60233D02*
D03*
Y72044D02*
D03*
Y83855D02*
D03*
Y95666D02*
D03*
Y48422D02*
D03*
D49*
X360728Y81791D02*
D03*
X331201D02*
D03*
X286910Y81791D02*
D03*
X257382D02*
D03*
X212106Y81791D02*
D03*
X182579D02*
D03*
X138287D02*
D03*
X108760D02*
D03*
D50*
X467520Y15748D02*
D03*
X15748Y259842D02*
D03*
X467520D02*
D03*
X15748Y15748D02*
D03*
D51*
X6063Y199016D02*
D03*
Y139961D02*
D03*
X459697Y186217D02*
D03*
Y127162D02*
D03*
X459697Y36611D02*
D03*
Y107477D02*
D03*
M02*
