G04*
G04 #@! TF.GenerationSoftware,Altium Limited,Altium Designer,18.1.11 (251)*
G04*
G04 Layer_Color=8388736*
%FSLAX25Y25*%
%MOIN*%
G70*
G01*
G75*
%ADD30R,0.03359X0.04540*%
%ADD31R,0.04343X0.04147*%
%ADD32C,0.08674*%
%ADD33R,0.04147X0.04343*%
%ADD34R,0.02454X0.03162*%
%ADD35O,0.02454X0.03162*%
%ADD36R,0.03950X0.03950*%
%ADD37R,0.10642X0.08871*%
%ADD38O,0.06509X0.02572*%
%ADD39R,0.04147X0.02178*%
%ADD40R,0.04147X0.02375*%
%ADD41O,0.03753X0.01784*%
%ADD42O,0.03950X0.02178*%
%ADD43R,0.04737X0.04934*%
%ADD44R,0.04934X0.04737*%
%ADD45C,0.07493*%
%ADD46C,0.10642*%
%ADD47C,0.12808*%
%ADD48C,0.07099*%
%ADD49C,0.05131*%
%ADD50C,0.24422*%
%ADD51C,0.07887*%
D30*
X271555Y46422D02*
D03*
X264350D02*
D03*
X267953Y37170D02*
D03*
X346358Y46422D02*
D03*
X339154D02*
D03*
X342756Y37170D02*
D03*
X118209Y46422D02*
D03*
X111004D02*
D03*
X114606Y37170D02*
D03*
X192815Y46422D02*
D03*
X185610D02*
D03*
X189213Y37170D02*
D03*
X165020Y256594D02*
D03*
X157815D02*
D03*
X161417Y247342D02*
D03*
D31*
X419193Y23130D02*
D03*
Y17028D02*
D03*
X406595D02*
D03*
Y23130D02*
D03*
X366634Y55118D02*
D03*
Y61221D02*
D03*
X287402Y59941D02*
D03*
Y66043D02*
D03*
X295276D02*
D03*
Y59941D02*
D03*
X213091Y55118D02*
D03*
Y61221D02*
D03*
X137795Y56004D02*
D03*
Y62106D02*
D03*
X149606Y250886D02*
D03*
Y256988D02*
D03*
X133858Y250886D02*
D03*
Y256988D02*
D03*
X92520Y260925D02*
D03*
Y254823D02*
D03*
X104331D02*
D03*
Y260925D02*
D03*
X356299Y243209D02*
D03*
Y237106D02*
D03*
X344488D02*
D03*
Y243209D02*
D03*
X307087Y258760D02*
D03*
Y264862D02*
D03*
X295276D02*
D03*
Y258760D02*
D03*
X442913Y243209D02*
D03*
Y237106D02*
D03*
X431102D02*
D03*
Y243209D02*
D03*
X395669Y260728D02*
D03*
Y266831D02*
D03*
X383858D02*
D03*
Y260728D02*
D03*
D32*
X308563Y180217D02*
D03*
X234744D02*
D03*
X159941D02*
D03*
D33*
X329994Y30791D02*
D03*
X323891D02*
D03*
X255191D02*
D03*
X249088D02*
D03*
X176450D02*
D03*
X170348D02*
D03*
X101844D02*
D03*
X95742D02*
D03*
X81791Y131004D02*
D03*
X75689D02*
D03*
X301083Y244094D02*
D03*
X307185D02*
D03*
X389665Y246063D02*
D03*
X395768D02*
D03*
D34*
X361122Y36516D02*
D03*
X286319Y36909D02*
D03*
X207579D02*
D03*
X133268Y37795D02*
D03*
D35*
X363681Y36516D02*
D03*
X366240D02*
D03*
X361122Y43996D02*
D03*
X363681D02*
D03*
X366240D02*
D03*
X288878Y36909D02*
D03*
X291437D02*
D03*
X286319Y44390D02*
D03*
X288878D02*
D03*
X291437D02*
D03*
X210138Y36909D02*
D03*
X212697D02*
D03*
X207579Y44390D02*
D03*
X210138D02*
D03*
X212697D02*
D03*
X135827Y37795D02*
D03*
X138386D02*
D03*
X133268Y45276D02*
D03*
X135827D02*
D03*
X138386D02*
D03*
D36*
X336457Y30791D02*
D03*
X342756D02*
D03*
X261653D02*
D03*
X267953D02*
D03*
X182913D02*
D03*
X189213D02*
D03*
X108307D02*
D03*
X114606D02*
D03*
X81693Y140945D02*
D03*
X75394D02*
D03*
D37*
X333760Y59153D02*
D03*
X346358D02*
D03*
X258957D02*
D03*
X271555D02*
D03*
X180217D02*
D03*
X192815D02*
D03*
X105610Y59055D02*
D03*
X118209D02*
D03*
D38*
X422047Y250098D02*
D03*
Y252658D02*
D03*
Y255217D02*
D03*
Y257776D02*
D03*
X404724Y250098D02*
D03*
Y252658D02*
D03*
Y255217D02*
D03*
Y257776D02*
D03*
X335433Y250098D02*
D03*
Y252658D02*
D03*
Y255217D02*
D03*
Y257776D02*
D03*
X318110Y250098D02*
D03*
Y252658D02*
D03*
Y255217D02*
D03*
Y257776D02*
D03*
D39*
X73228Y247441D02*
D03*
Y250000D02*
D03*
Y252559D02*
D03*
X64567D02*
D03*
Y247441D02*
D03*
X201181Y249410D02*
D03*
Y251969D02*
D03*
Y254528D02*
D03*
X192520D02*
D03*
Y249410D02*
D03*
D40*
X111713D02*
D03*
Y254528D02*
D03*
X120571D02*
D03*
Y251969D02*
D03*
Y249410D02*
D03*
D41*
X228150Y254921D02*
D03*
Y252953D02*
D03*
Y250984D02*
D03*
Y249016D02*
D03*
X240354Y254921D02*
D03*
Y252953D02*
D03*
Y250984D02*
D03*
Y249016D02*
D03*
D42*
X253543Y254921D02*
D03*
Y252953D02*
D03*
Y250984D02*
D03*
Y249016D02*
D03*
X266142Y254921D02*
D03*
Y252953D02*
D03*
Y250984D02*
D03*
Y249016D02*
D03*
D43*
X141732Y256890D02*
D03*
Y250984D02*
D03*
X57087Y252953D02*
D03*
Y247047D02*
D03*
X220472Y254921D02*
D03*
Y249016D02*
D03*
X104331Y247047D02*
D03*
Y241142D02*
D03*
X185039Y254921D02*
D03*
Y249016D02*
D03*
X273622Y254921D02*
D03*
Y249016D02*
D03*
D44*
X351378Y257874D02*
D03*
X345472D02*
D03*
X437992Y259842D02*
D03*
X432087D02*
D03*
X351378Y250000D02*
D03*
X345472D02*
D03*
X301181Y251969D02*
D03*
X307087D02*
D03*
X437992D02*
D03*
X432087D02*
D03*
X389764Y253937D02*
D03*
X395669D02*
D03*
D45*
X103517Y21654D02*
D03*
X113517D02*
D03*
X178124Y21752D02*
D03*
X188124D02*
D03*
X256864D02*
D03*
X266864D02*
D03*
X331667D02*
D03*
X341667D02*
D03*
X25591Y114842D02*
D03*
Y104842D02*
D03*
Y94842D02*
D03*
Y84842D02*
D03*
Y74843D02*
D03*
Y64842D02*
D03*
Y54843D02*
D03*
Y44842D02*
D03*
D46*
X133071Y213386D02*
D03*
Y190945D02*
D03*
D47*
X138347Y202165D02*
D03*
D48*
X13780Y187205D02*
D03*
Y175394D02*
D03*
Y163583D02*
D03*
Y151772D02*
D03*
X467414Y174406D02*
D03*
Y162595D02*
D03*
Y150784D02*
D03*
Y138973D02*
D03*
X331201Y140847D02*
D03*
Y160531D02*
D03*
X360728D02*
D03*
Y140847D02*
D03*
X257382Y140847D02*
D03*
Y160531D02*
D03*
X286910D02*
D03*
Y140847D02*
D03*
X182579Y140847D02*
D03*
Y160531D02*
D03*
X212106D02*
D03*
Y140847D02*
D03*
X108760D02*
D03*
Y160531D02*
D03*
X138287D02*
D03*
Y140847D02*
D03*
X467414Y60233D02*
D03*
Y72044D02*
D03*
Y83855D02*
D03*
Y95666D02*
D03*
Y48422D02*
D03*
D49*
X360728Y81791D02*
D03*
X331201D02*
D03*
X286910Y81791D02*
D03*
X257382D02*
D03*
X212106Y81791D02*
D03*
X182579D02*
D03*
X138287D02*
D03*
X108760D02*
D03*
D50*
X467520Y15748D02*
D03*
X15748Y259842D02*
D03*
X467520D02*
D03*
X15748Y15748D02*
D03*
D51*
X6063Y199016D02*
D03*
Y139961D02*
D03*
X459697Y186217D02*
D03*
Y127162D02*
D03*
X459697Y36611D02*
D03*
Y107477D02*
D03*
M02*
